STARTFONT 2.1
COMMENT This font image is originally translated from Metafont ``dvng10''
COMMENT from devnagri package.
COMMENT DPI was ``147'', usermag ``1000'', blackness ``3''
COMMENT shrink was 1
FONT -Misc-Fixed-Medium-R-Normal--24-240-72-72-C-120-MuleIndian-1
SIZE 24 72 72
FONTBOUNDINGBOX 12 27 0 -5
STARTPROPERTIES 22
FOUNDRY "Misc"
FAMILY_NAME "Fixed"
WEIGHT_NAME "Medium"
SLANT "R"
SETWIDTH_NAME "Normal"
ADD_STYLE_NAME ""
PIXEL_SIZE 12
POINT_SIZE 120
RESOLUTION_X 72
RESOLUTION_Y 72
SPACING "C"
AVERAGE_WIDTH 120
CHARSET_REGISTRY "MuleIndian"
CHARSET_ENCODING "1"
STRIKEOUT_ASCENT 22
STRIKEOUT_DESCENT 5
X_HEIGHT 10
FACE_NAME "Indian"
COPYRIGHT "Public domain"
FONT_ASCENT 22
FONT_DESCENT 5
DEFAULT_CHAR 32
ENDPROPERTIES
CHARS 376
STARTCHAR c2121
ENCODING 8481
SWIDTH 500 0
DWIDTH 12 0
BBX 12 5 0 15
BITMAP
2580
1f80
1d80
0f80
0700
ENDCHAR
STARTCHAR c2122
ENCODING 8482
SWIDTH 500 0
DWIDTH 12 0
BBX 12 3 0 16
BITMAP
0040
00e0
0040
ENDCHAR
STARTCHAR c2123
ENCODING 8483
SWIDTH 500 0
DWIDTH 12 0
BBX 12 8 0 2
BITMAP
0400
0e00
0400
0000
0000
0400
0e00
0400
ENDCHAR
STARTCHAR c2124
ENCODING 8484
SWIDTH 500 0
DWIDTH 12 0
BBX 12 27 0 -5
BITMAP
0000
0000
0000
0000
0000
0000
0000
0000
0000
0000
0000
0000
0000
0000
0000
0000
0000
0000
0000
0000
0000
0000
0000
0000
0000
0000
0000
ENDCHAR
STARTCHAR c2125
ENCODING 8485
SWIDTH 500 0
DWIDTH 12 0
BBX 12 27 0 -5
BITMAP
0000
0000
0000
0000
0000
0000
0000
0000
0000
0000
0000
0000
0000
0000
0000
0000
0000
0000
0000
0000
0000
0000
0000
0000
0000
0000
0000
ENDCHAR
STARTCHAR c2126
ENCODING 8486
SWIDTH 500 0
DWIDTH 12 0
BBX 12 15 0 -1
BITMAP
fff0
fff0
0180
1f80
3f80
3000
1f00
0f80
00c0
1dc0
3f80
1f00
0080
00c0
0040
ENDCHAR
STARTCHAR c2127
ENCODING 8487
SWIDTH 500 0
DWIDTH 12 0
BBX 12 20 0 -1
BITMAP
0380
07c0
0620
0200
0100
ffe0
7ff0
0180
1f80
3f80
3000
1f00
0f80
00c0
1dc0
3f80
1f00
0080
00c0
0040
ENDCHAR
STARTCHAR c2128
ENCODING 8488
SWIDTH 500 0
DWIDTH 12 0
BBX 12 13 0 1
BITMAP
ffe0
7ff0
00c0
00c0
01c0
1f80
4f00
6080
60c0
20c0
11c0
0f80
0700
ENDCHAR
STARTCHAR c2129
ENCODING 8489
SWIDTH 500 0
DWIDTH 12 0
BBX 12 27 0 -5
BITMAP
0000
0000
0000
0000
0000
0000
0000
0000
0000
0000
0000
0000
0000
0000
0000
0000
0000
0000
0000
0000
0000
0000
0000
0000
0000
0000
0000
ENDCHAR
STARTCHAR c212a
ENCODING 8490
SWIDTH 500 0
DWIDTH 12 0
BBX 12 27 0 -5
BITMAP
0000
0000
0000
0000
0000
0000
0000
0000
0000
0000
0000
0000
0000
0000
0000
0000
0000
0000
0000
0000
0000
0000
0000
0000
0000
0000
0000
ENDCHAR
STARTCHAR c212b
ENCODING 8491
SWIDTH 500 0
DWIDTH 12 0
BBX 12 27 0 -5
BITMAP
0000
0000
0000
0000
0000
0000
0000
0000
0000
0000
0000
0000
0000
0000
0000
0000
0000
0000
0000
0000
0000
0000
0000
0000
0000
0000
0000
ENDCHAR
STARTCHAR c212c
ENCODING 8492
SWIDTH 500 0
DWIDTH 12 0
BBX 12 27 0 -5
BITMAP
0000
0000
0000
0000
0000
0000
0000
0000
0000
0000
0000
0000
0000
0000
0000
0000
0000
0000
0000
0000
0000
0000
0000
0000
0000
0000
0000
ENDCHAR
STARTCHAR c212d
ENCODING 8493
SWIDTH 500 0
DWIDTH 12 0
BBX 12 27 0 -5
BITMAP
0000
0000
0000
0000
0000
0000
0000
0000
0000
0000
0000
0000
0000
0000
0000
0000
0000
0000
0000
0000
0000
0000
0000
0000
0000
0000
0000
ENDCHAR
STARTCHAR c212e
ENCODING 8494
SWIDTH 500 0
DWIDTH 12 0
BBX 12 27 0 -5
BITMAP
0000
0000
0000
0000
0000
0000
0000
0000
0000
0000
0000
0000
0000
0000
0000
0000
0000
0000
0000
0000
0000
0000
0000
0000
0000
0000
0000
ENDCHAR
STARTCHAR c212f
ENCODING 8495
SWIDTH 500 0
DWIDTH 12 0
BBX 12 27 0 -5
BITMAP
0000
0000
0000
0000
0000
0000
0000
0000
0000
0000
0000
0000
0000
0000
0000
0000
0000
0000
0000
0000
0000
0000
0000
0000
0000
0000
0000
ENDCHAR
STARTCHAR c2130
ENCODING 8496
SWIDTH 500 0
DWIDTH 12 0
BBX 12 27 0 -5
BITMAP
0000
0000
0000
0000
0000
0000
0000
0000
0000
0000
0000
0000
0000
0000
0000
0000
0000
0000
0000
0000
0000
0000
0000
0000
0000
0000
0000
ENDCHAR
STARTCHAR c2131
ENCODING 8497
SWIDTH 500 0
DWIDTH 12 0
BBX 12 27 0 -5
BITMAP
0000
0000
0000
0000
0000
0000
0000
0000
0000
0000
0000
0000
0000
0000
0000
0000
0000
0000
0000
0000
0000
0000
0000
0000
0000
0000
0000
ENDCHAR
STARTCHAR c2132
ENCODING 8498
SWIDTH 500 0
DWIDTH 12 0
BBX 12 27 0 -5
BITMAP
0000
0000
0000
0000
0000
0000
0000
0000
0000
0000
0000
0000
0000
0000
0000
0000
0000
0000
0000
0000
0000
0000
0000
0000
0000
0000
0000
ENDCHAR
STARTCHAR c2133
ENCODING 8499
SWIDTH 500 0
DWIDTH 12 0
BBX 12 14 0 0
BITMAP
fff0
fff0
0600
7e00
ffe0
c7f0
c730
c630
7e30
3e30
0670
0660
0620
0200
ENDCHAR
STARTCHAR c2134
ENCODING 8500
SWIDTH 500 0
DWIDTH 12 0
BBX 12 27 0 -5
BITMAP
0000
0000
0000
0000
0000
0000
0000
0000
0000
0000
0000
0000
0000
0000
0000
0000
0000
0000
0000
0000
0000
0000
0000
0000
0000
0000
0000
ENDCHAR
STARTCHAR c2135
ENCODING 8501
SWIDTH 500 0
DWIDTH 12 0
BBX 12 14 0 0
BITMAP
fff0
fff0
1060
1860
1860
1860
7860
7860
3860
3860
0060
0060
0060
0020
ENDCHAR
STARTCHAR c2136
ENCODING 8502
SWIDTH 500 0
DWIDTH 12 0
BBX 12 27 0 -5
BITMAP
0000
0000
0000
0000
0000
0000
0000
0000
0000
0000
0000
0000
0000
0000
0000
0000
0000
0000
0000
0000
0000
0000
0000
0000
0000
0000
0000
ENDCHAR
STARTCHAR c2137
ENCODING 8503
SWIDTH 500 0
DWIDTH 12 0
BBX 12 27 0 -5
BITMAP
0000
0000
0000
0000
0000
0000
0000
0000
0000
0000
0000
0000
0000
0000
0000
0000
0000
0000
0000
0000
0000
0000
0000
0000
0000
0000
0000
ENDCHAR
STARTCHAR c2138
ENCODING 8504
SWIDTH 500 0
DWIDTH 12 0
BBX 12 27 0 -5
BITMAP
0000
0000
0000
0000
0000
0000
0000
0000
0000
0000
0000
0000
0000
0000
0000
0000
0000
0000
0000
0000
0000
0000
0000
0000
0000
0000
0000
ENDCHAR
STARTCHAR c2139
ENCODING 8505
SWIDTH 500 0
DWIDTH 12 0
BBX 12 27 0 -5
BITMAP
0000
0000
0000
0000
0000
0000
0000
0000
0000
0000
0000
0000
0000
0000
0000
0000
0000
0000
0000
0000
0000
0000
0000
0000
0000
0000
0000
ENDCHAR
STARTCHAR c213a
ENCODING 8506
SWIDTH 500 0
DWIDTH 12 0
BBX 12 27 0 -5
BITMAP
0000
0000
0000
0000
0000
0000
0000
0000
0000
0000
0000
0000
0000
0000
0000
0000
0000
0000
0000
0000
0000
0000
0000
0000
0000
0000
0000
ENDCHAR
STARTCHAR c213b
ENCODING 8507
SWIDTH 500 0
DWIDTH 12 0
BBX 12 27 0 -5
BITMAP
0000
0000
0000
0000
0000
0000
0000
0000
0000
0000
0000
0000
0000
0000
0000
0000
0000
0000
0000
0000
0000
0000
0000
0000
0000
0000
0000
ENDCHAR
STARTCHAR c213c
ENCODING 8508
SWIDTH 500 0
DWIDTH 12 0
BBX 12 27 0 -5
BITMAP
0000
0000
0000
0000
0000
0000
0000
0000
0000
0000
0000
0000
0000
0000
0000
0000
0000
0000
0000
0000
0000
0000
0000
0000
0000
0000
0000
ENDCHAR
STARTCHAR c213d
ENCODING 8509
SWIDTH 500 0
DWIDTH 12 0
BBX 12 13 0 1
BITMAP
fff0
fff0
0180
0180
0f80
3f80
7800
6000
6000
6000
20e0
1fe0
0f80
ENDCHAR
STARTCHAR c213e
ENCODING 8510
SWIDTH 500 0
DWIDTH 12 0
BBX 12 13 0 1
BITMAP
fff0
fff0
0180
0180
0f80
3f80
7840
6020
6030
6030
2070
1fe0
0fc0
ENDCHAR
STARTCHAR c213f
ENCODING 8511
SWIDTH 500 0
DWIDTH 12 0
BBX 12 12 0 2
BITMAP
fff0
fff0
00c0
0fc0
1fc0
1800
0f80
47c0
6060
20e0
1fc0
0f80
ENDCHAR
STARTCHAR c2140
ENCODING 8512
SWIDTH 500 0
DWIDTH 12 0
BBX 12 13 0 1
BITMAP
fff0
fff0
0180
1f80
3f80
7000
6000
6380
67c0
2e60
1c60
0fe0
07c0
ENDCHAR
STARTCHAR c2141
ENCODING 8513
SWIDTH 500 0
DWIDTH 12 0
BBX 12 27 0 -5
BITMAP
0000
0000
0000
0000
0000
0000
0000
0000
0000
0000
0000
0000
0000
0000
0000
0000
0000
0000
0000
0000
0000
0000
0000
0000
0000
0000
0000
ENDCHAR
STARTCHAR c2142
ENCODING 8514
SWIDTH 500 0
DWIDTH 12 0
BBX 12 14 0 0
BITMAP
fff0
fff0
00c0
00c0
3fc0
7fc0
60c0
60c0
60c0
20c0
30c0
10c0
08c0
0440
ENDCHAR
STARTCHAR c2143
ENCODING 8515
SWIDTH 500 0
DWIDTH 12 0
BBX 12 14 0 0
BITMAP
33f0
79f0
6c60
6c60
3c60
7c60
7060
20e0
1fe0
0fe0
0060
0060
0060
0020
ENDCHAR
STARTCHAR c2144
ENCODING 8516
SWIDTH 500 0
DWIDTH 12 0
BBX 12 13 0 1
BITMAP
fff0
fff0
00c0
1fc0
3fc0
3000
3000
3180
13c0
0fc0
07c0
00c0
0060
ENDCHAR
STARTCHAR c2145
ENCODING 8517
SWIDTH 500 0
DWIDTH 12 0
BBX 12 14 0 0
BITMAP
23f0
71f0
6060
2060
1e60
3f60
3060
31e0
1fe0
0f60
0060
0060
0060
0020
ENDCHAR
STARTCHAR c2146
ENCODING 8518
SWIDTH 500 0
DWIDTH 12 0
BBX 12 14 0 0
BITMAP
fff0
fff0
00c0
00c0
00c0
3fc0
7fc0
38c0
10c0
00c0
00c0
00c0
00c0
0040
ENDCHAR
STARTCHAR c2147
ENCODING 8519
SWIDTH 500 0
DWIDTH 12 0
BBX 12 15 0 -1
BITMAP
fff0
fff0
00c0
00c0
00c0
3fc0
7fc0
38c0
10c0
00c0
00c0
00c0
08c0
1c40
0800
ENDCHAR
STARTCHAR c2148
ENCODING 8520
SWIDTH 500 0
DWIDTH 12 0
BBX 12 14 0 0
BITMAP
fff0
fff0
30c0
30c0
30c0
10c0
18c0
0fc0
07c0
00c0
00c0
00c0
00c0
0040
ENDCHAR
STARTCHAR c2149
ENCODING 8521
SWIDTH 500 0
DWIDTH 12 0
BBX 12 27 0 -5
BITMAP
0000
0000
0000
0000
0000
0000
0000
0000
0000
0000
0000
0000
0000
0000
0000
0000
0000
0000
0000
0000
0000
0000
0000
0000
0000
0000
0000
ENDCHAR
STARTCHAR c214a
ENCODING 8522
SWIDTH 500 0
DWIDTH 12 0
BBX 12 14 0 0
BITMAP
fff0
fff0
00c0
1ec0
3fc0
78c0
64c0
66c0
23c0
1fc0
0fc0
00c0
00c0
0040
ENDCHAR
STARTCHAR c214b
ENCODING 8523
SWIDTH 500 0
DWIDTH 12 0
BBX 12 14 0 0
BITMAP
c3f0
61f0
1060
1860
1860
1860
7fe0
7fe0
3860
1860
0060
0060
0060
0020
ENDCHAR
STARTCHAR c214c
ENCODING 8524
SWIDTH 500 0
DWIDTH 12 0
BBX 12 14 0 0
BITMAP
fff0
fff0
3060
3060
3060
3060
ffe0
ffe0
f060
7060
0060
0060
0060
0020
ENDCHAR
STARTCHAR c214d
ENCODING 8525
SWIDTH 500 0
DWIDTH 12 0
BBX 12 14 0 0
BITMAP
fff0
fff0
0c60
0c60
1c60
7860
7060
20e0
1fe0
0fe0
0060
0060
0060
0020
ENDCHAR
STARTCHAR c214e
ENCODING 8526
SWIDTH 500 0
DWIDTH 12 0
BBX 12 17 0 -3
BITMAP
fff0
fff0
0c60
0c60
1c60
7860
7060
20e0
1fe0
0fe0
0060
0060
0060
0020
0200
0700
0200
ENDCHAR
STARTCHAR c214f
ENCODING 8527
SWIDTH 500 0
DWIDTH 12 0
BBX 12 14 0 0
BITMAP
fff0
fff0
0e00
0c00
2c00
3c00
3c00
1800
1800
0800
0400
0200
0180
00c0
ENDCHAR
STARTCHAR c2150
ENCODING 8528
SWIDTH 500 0
DWIDTH 12 0
BBX 12 17 0 -3
BITMAP
fff0
fff0
0e00
0c00
2c00
3c00
3c00
1800
1800
0800
0400
0200
0180
00c0
0400
0e00
0400
ENDCHAR
STARTCHAR c2151
ENCODING 8529
SWIDTH 500 0
DWIDTH 12 0
BBX 12 27 0 -5
BITMAP
0000
0000
0000
0000
0000
0000
0000
0000
0000
0000
0000
0000
0000
0000
0000
0000
0000
0000
0000
0000
0000
0000
0000
0000
0000
0000
0000
ENDCHAR
STARTCHAR c2152
ENCODING 8530
SWIDTH 500 0
DWIDTH 12 0
BBX 12 27 0 -5
BITMAP
0000
0000
0000
0000
0000
0000
0000
0000
0000
0000
0000
0000
0000
0000
0000
0000
0000
0000
0000
0000
0000
0000
0000
0000
0000
0000
0000
ENDCHAR
STARTCHAR c2153
ENCODING 8531
SWIDTH 500 0
DWIDTH 12 0
BBX 12 27 0 -5
BITMAP
0000
0000
0000
0000
0000
0000
0000
0000
0000
0000
0000
0000
0000
0000
0000
0000
0000
0000
0000
0000
0000
0000
0000
0000
0000
0000
0000
ENDCHAR
STARTCHAR c2154
ENCODING 8532
SWIDTH 500 0
DWIDTH 12 0
BBX 12 14 0 0
BITMAP
fff0
fff0
00c0
1ec0
3fc0
70c0
60c0
60c0
21c0
1fc0
0fc0
00c0
00c0
0040
ENDCHAR
STARTCHAR c2155
ENCODING 8533
SWIDTH 500 0
DWIDTH 12 0
BBX 12 27 0 -5
BITMAP
0000
0000
0000
0000
0000
0000
0000
0000
0000
0000
0000
0000
0000
0000
0000
0000
0000
0000
0000
0000
0000
0000
0000
0000
0000
0000
0000
ENDCHAR
STARTCHAR c2156
ENCODING 8534
SWIDTH 500 0
DWIDTH 12 0
BBX 12 14 0 0
BITMAP
fff0
fff0
38c0
3cc0
36c0
13c0
19c0
0fc0
07c0
00c0
00c0
00c0
00c0
0040
ENDCHAR
STARTCHAR c2157
ENCODING 8535
SWIDTH 500 0
DWIDTH 12 0
BBX 12 14 0 0
BITMAP
fff0
fff0
1860
3860
b060
f0e0
ffe0
6fe0
6060
2060
3060
1060
0860
0420
ENDCHAR
STARTCHAR c2158
ENCODING 8536
SWIDTH 500 0
DWIDTH 12 0
BBX 12 17 0 -3
BITMAP
fff0
fff0
0180
3f80
7f80
6000
6000
3f80
3fc0
7860
6060
63e0
23c0
1800
0e00
03c0
00e0
ENDCHAR
STARTCHAR c2159
ENCODING 8537
SWIDTH 500 0
DWIDTH 12 0
BBX 12 27 0 -5
BITMAP
0000
0000
0000
0000
0000
0000
0000
0000
0000
0000
0000
0000
0000
0000
0000
0000
0000
0000
0000
0000
0000
0000
0000
0000
0000
0000
0000
ENDCHAR
STARTCHAR c215a
ENCODING 8538
SWIDTH 500 0
DWIDTH 12 0
BBX 12 14 0 0
BITMAP
ffc0
7fe0
1800
1800
1800
1800
1800
1800
1800
1800
1800
1800
1800
0800
ENDCHAR
STARTCHAR c215b
ENCODING 8539
SWIDTH 500 0
DWIDTH 12 0
BBX 16 20 0 0
BITMAP
01f0
03fc
0306
0301
0300
0300
7fe0
3ff0
0300
0300
0300
0300
0300
0300
0300
0300
0300
0300
0300
0100
ENDCHAR
STARTCHAR c215c
ENCODING 8540
SWIDTH 500 0
DWIDTH 12 0
BBX 16 20 -4 0
BITMAP
3c00
7e00
e100
c080
40c0
00c0
0ffc
07fe
0060
0060
0060
0060
0060
0060
0060
0060
0060
0060
0060
0020
ENDCHAR
STARTCHAR c215d
ENCODING 8541
SWIDTH 500 0
DWIDTH 12 0
BBX 12 6 0 -5
BITMAP
21c0
3be0
1f30
0e30
07f0
01e0
ENDCHAR
STARTCHAR c215e
ENCODING 8542
SWIDTH 500 0
DWIDTH 12 0
BBX 12 6 0 -5
BITMAP
1e00
3f00
3180
3cc0
1e40
0020
ENDCHAR
STARTCHAR c215f
ENCODING 8543
SWIDTH 500 0
DWIDTH 12 0
BBX 12 6 0 -5
BITMAP
0700
1f80
1800
1800
0fc0
07c0
ENDCHAR
STARTCHAR c2160
ENCODING 8544
SWIDTH 500 0
DWIDTH 12 0
BBX 12 6 0 14
BITMAP
c000
6000
3e00
0f00
0180
00c0
ENDCHAR
STARTCHAR c2161
ENCODING 8545
SWIDTH 500 0
DWIDTH 12 0
BBX 12 6 0 14
BITMAP
e000
7800
0c00
0200
0100
0180
ENDCHAR
STARTCHAR c2162
ENCODING 8546
SWIDTH 500 0
DWIDTH 12 0
BBX 12 7 0 14
BITMAP
3000
1800
0400
f200
7f00
0700
0180
ENDCHAR
STARTCHAR c2163
ENCODING 8547
SWIDTH 500 0
DWIDTH 12 0
BBX 16 5 -4 15
BITMAP
0430
0230
0330
01f0
00e0
ENDCHAR
STARTCHAR c2164
ENCODING 8548
SWIDTH 500 0
DWIDTH 12 0
BBX 16 20 -4 0
BITMAP
e000
7000
3f00
1f80
01c0
00e0
0ffc
07fe
0060
0060
0060
0060
0060
0060
0060
0060
0060
0060
0060
0020
ENDCHAR
STARTCHAR c2165
ENCODING 8549
SWIDTH 500 0
DWIDTH 12 0
BBX 16 20 -4 0
BITMAP
e000
7800
0c00
0200
0100
0180
0ffc
07fe
00c0
00c0
00c0
00c0
00c0
00c0
00c0
00c0
00c0
00c0
00c0
0040
ENDCHAR
STARTCHAR c2166
ENCODING 8550
SWIDTH 500 0
DWIDTH 12 0
BBX 16 21 -4 0
BITMAP
3800
1c00
0200
f100
7d80
0680
01c0
0ffc
07fe
00c0
00c0
00c0
00c0
00c0
00c0
00c0
00c0
00c0
00c0
00c0
0040
ENDCHAR
STARTCHAR c2167
ENCODING 8551
SWIDTH 500 0
DWIDTH 12 0
BBX 16 20 -4 0
BITMAP
10c0
08c0
0cc0
07c0
0380
0000
0ffc
07fe
00c0
00c0
00c0
00c0
00c0
00c0
00c0
00c0
00c0
00c0
00c0
0040
ENDCHAR
STARTCHAR c2168
ENCODING 8552
SWIDTH 500 0
DWIDTH 12 0
BBX 12 4 0 -4
BITMAP
0e00
0700
0080
0040
ENDCHAR
STARTCHAR c2169
ENCODING 8553
SWIDTH 500 0
DWIDTH 12 0
BBX 12 3 0 -4
BITMAP
0400
0e00
0400
ENDCHAR
STARTCHAR c216a
ENCODING 8554
SWIDTH 500 0
DWIDTH 12 0
BBX 12 14 0 0
BITMAP
0400
0600
0600
0600
0600
0600
0600
0600
0600
0600
0600
0600
0600
0200
ENDCHAR
STARTCHAR c216b
ENCODING 8555
SWIDTH 500 0
DWIDTH 12 0
BBX 12 27 0 -5
BITMAP
0000
0000
0000
0000
0000
0000
0000
0000
0000
0000
0000
0000
0000
0000
0000
0000
0000
0000
0000
0000
0000
0000
0000
0000
0000
0000
0000
ENDCHAR
STARTCHAR c216c
ENCODING 8556
SWIDTH 500 0
DWIDTH 12 0
BBX 12 27 0 -5
BITMAP
0000
0000
0000
0000
0000
0000
0000
0000
0000
0000
0000
0000
0000
0000
0000
0000
0000
0000
0000
0000
0000
0000
0000
0000
0000
0000
0000
ENDCHAR
STARTCHAR c216d
ENCODING 8557
SWIDTH 500 0
DWIDTH 12 0
BBX 12 27 0 -5
BITMAP
0000
0000
0000
0000
0000
0000
0000
0000
0000
0000
0000
0000
0000
0000
0000
0000
0000
0000
0000
0000
0000
0000
0000
0000
0000
0000
0000
ENDCHAR
STARTCHAR c216e
ENCODING 8558
SWIDTH 500 0
DWIDTH 12 0
BBX 12 27 0 -5
BITMAP
0000
0000
0000
0000
0000
0000
0000
0000
0000
0000
0000
0000
0000
0000
0000
0000
0000
0000
0000
0000
0000
0000
0000
0000
0000
0000
0000
ENDCHAR
STARTCHAR c216f
ENCODING 8559
SWIDTH 500 0
DWIDTH 12 0
BBX 12 27 0 -5
BITMAP
0000
0000
0000
0000
0000
0000
0000
0000
0000
0000
0000
0000
0000
0000
0000
0000
0000
0000
0000
0000
0000
0000
0000
0000
0000
0000
0000
ENDCHAR
STARTCHAR c2170
ENCODING 8560
SWIDTH 500 0
DWIDTH 12 0
BBX 12 27 0 -5
BITMAP
0000
0000
0000
0000
0000
0000
0000
0000
0000
0000
0000
0000
0000
0000
0000
0000
0000
0000
0000
0000
0000
0000
0000
0000
0000
0000
0000
ENDCHAR
STARTCHAR c2171
ENCODING 8561
SWIDTH 500 0
DWIDTH 12 0
BBX 12 8 0 3
BITMAP
0e00
1f00
3880
30c0
30c0
11c0
0f80
0700
ENDCHAR
STARTCHAR c2172
ENCODING 8562
SWIDTH 500 0
DWIDTH 12 0
BBX 12 17 0 -3
BITMAP
0c00
1e00
3900
3180
3180
1380
0f80
0700
0e00
3c00
3800
1000
0800
0400
0200
0300
0300
ENDCHAR
STARTCHAR c2173
ENCODING 8563
SWIDTH 500 0
DWIDTH 12 0
BBX 12 15 0 -2
BITMAP
7f00
3f80
0040
0060
0060
00e0
33c0
3f80
1e00
0200
0300
0100
0080
00c0
0040
ENDCHAR
STARTCHAR c2174
ENCODING 8564
SWIDTH 500 0
DWIDTH 12 0
BBX 12 15 0 -2
BITMAP
3e00
1f00
0180
0180
3f80
1f00
0080
00c0
33c0
3f80
1e00
0200
0100
0180
0080
ENDCHAR
STARTCHAR c2175
ENCODING 8565
SWIDTH 500 0
DWIDTH 12 0
BBX 12 12 0 2
BITMAP
8060
40f0
21c0
1780
0f00
1c00
3e00
3200
3300
3300
1f00
0e00
ENDCHAR
STARTCHAR c2176
ENCODING 8566
SWIDTH 500 0
DWIDTH 12 0
BBX 12 15 0 -1
BITMAP
4100
6180
6180
6180
2180
3780
1f00
0f00
0700
0600
3e00
7f00
3980
0040
0020
ENDCHAR
STARTCHAR c2177
ENCODING 8567
SWIDTH 500 0
DWIDTH 12 0
BBX 12 16 0 -2
BITMAP
1e00
3f00
7000
6000
2000
1f00
1f80
3800
3000
3180
11c0
0fc0
0780
00c0
00c0
0040
ENDCHAR
STARTCHAR c2178
ENCODING 8568
SWIDTH 500 0
DWIDTH 12 0
BBX 12 13 0 1
BITMAP
8000
c000
c780
cfc0
cc20
cc30
4470
63f0
21f0
3070
10e0
0fc0
0780
ENDCHAR
STARTCHAR c2179
ENCODING 8569
SWIDTH 500 0
DWIDTH 12 0
BBX 12 12 0 0
BITMAP
ffc0
7fe0
3000
7000
6000
6000
6000
6380
3fc0
1e60
00e0
0040
ENDCHAR
STARTCHAR c217a
ENCODING 8570
SWIDTH 500 0
DWIDTH 12 0
BBX 12 16 0 -2
BITMAP
3c00
7e00
6300
6300
2700
3e00
1c00
0800
0c00
0400
0200
0100
0080
0040
01e0
00c0
ENDCHAR
STARTCHAR c217b
ENCODING 8571
SWIDTH 500 0
DWIDTH 12 0
BBX 12 27 0 -5
BITMAP
0000
0000
0000
0000
0000
0000
0000
0000
0000
0000
0000
0000
0000
0000
0000
0000
0000
0000
0000
0000
0000
0000
0000
0000
0000
0000
0000
ENDCHAR
STARTCHAR c217c
ENCODING 8572
SWIDTH 500 0
DWIDTH 12 0
BBX 12 27 0 -5
BITMAP
0000
0000
0000
0000
0000
0000
0000
0000
0000
0000
0000
0000
0000
0000
0000
0000
0000
0000
0000
0000
0000
0000
0000
0000
0000
0000
0000
ENDCHAR
STARTCHAR c217d
ENCODING 8573
SWIDTH 500 0
DWIDTH 12 0
BBX 12 27 0 -5
BITMAP
0000
0000
0000
0000
0000
0000
0000
0000
0000
0000
0000
0000
0000
0000
0000
0000
0000
0000
0000
0000
0000
0000
0000
0000
0000
0000
0000
ENDCHAR
STARTCHAR c217e
ENCODING 8574
SWIDTH 500 0
DWIDTH 12 0
BBX 12 27 0 -5
BITMAP
0000
0000
0000
0000
0000
0000
0000
0000
0000
0000
0000
0000
0000
0000
0000
0000
0000
0000
0000
0000
0000
0000
0000
0000
0000
0000
0000
ENDCHAR
STARTCHAR c2221
ENCODING 8737
SWIDTH 500 0
DWIDTH 12 0
BBX 12 27 0 -5
BITMAP
0000
0000
0000
0000
0000
0000
0000
0000
0000
0000
0000
0000
0000
0000
0000
0000
0000
0000
0000
0000
0000
0000
0000
0000
0000
0000
0000
ENDCHAR
STARTCHAR c2222
ENCODING 8738
SWIDTH 500 0
DWIDTH 12 0
BBX 12 27 0 -5
BITMAP
0000
0000
0000
0000
0000
0000
0000
0000
0000
0000
0000
0000
0000
0000
0000
0000
0000
0000
0000
0000
0000
0000
0000
0000
0000
0000
0000
ENDCHAR
STARTCHAR c2223
ENCODING 8739
SWIDTH 500 0
DWIDTH 12 0
BBX 12 27 0 -5
BITMAP
0000
0000
0000
0000
0000
0000
0000
0000
0000
0000
0000
0000
0000
0000
0000
0000
0000
0000
0000
0000
0000
0000
0000
0000
0000
0000
0000
ENDCHAR
STARTCHAR c2224
ENCODING 8740
SWIDTH 500 0
DWIDTH 12 0
BBX 12 14 0 0
BITMAP
fff0
7ff0
1060
1860
1860
1860
7860
7860
38e0
39e0
03e0
0760
0e60
0c20
ENDCHAR
STARTCHAR c2225
ENCODING 8741
SWIDTH 500 0
DWIDTH 12 0
BBX 12 14 0 0
BITMAP
ffe0
7ff0
00c0
3cc0
7ec0
21c0
01c0
03c0
0fc0
3ec0
18c0
00c0
00c0
0040
ENDCHAR
STARTCHAR c2226
ENCODING 8742
SWIDTH 500 0
DWIDTH 12 0
BBX 12 14 0 0
BITMAP
ffe0
7ff0
30c0
30c0
30c0
10c0
18c0
0fc0
07c0
07c0
1ec0
38c0
30c0
0040
ENDCHAR
STARTCHAR c2227
ENCODING 8743
SWIDTH 500 0
DWIDTH 12 0
BBX 12 27 0 -5
BITMAP
0000
0000
0000
0000
0000
0000
0000
0000
0000
0000
0000
0000
0000
0000
0000
0000
0000
0000
0000
0000
0000
0000
0000
0000
0000
0000
0000
ENDCHAR
STARTCHAR c2228
ENCODING 8744
SWIDTH 500 0
DWIDTH 12 0
BBX 12 27 0 -5
BITMAP
0000
0000
0000
0000
0000
0000
0000
0000
0000
0000
0000
0000
0000
0000
0000
0000
0000
0000
0000
0000
0000
0000
0000
0000
0000
0000
0000
ENDCHAR
STARTCHAR c2229
ENCODING 8745
SWIDTH 500 0
DWIDTH 12 0
BBX 12 27 0 -5
BITMAP
0000
0000
0000
0000
0000
0000
0000
0000
0000
0000
0000
0000
0000
0000
0000
0000
0000
0000
0000
0000
0000
0000
0000
0000
0000
0000
0000
ENDCHAR
STARTCHAR c222a
ENCODING 8746
SWIDTH 500 0
DWIDTH 12 0
BBX 12 27 0 -5
BITMAP
0000
0000
0000
0000
0000
0000
0000
0000
0000
0000
0000
0000
0000
0000
0000
0000
0000
0000
0000
0000
0000
0000
0000
0000
0000
0000
0000
ENDCHAR
STARTCHAR c222b
ENCODING 8747
SWIDTH 500 0
DWIDTH 12 0
BBX 12 27 0 -5
BITMAP
0000
0000
0000
0000
0000
0000
0000
0000
0000
0000
0000
0000
0000
0000
0000
0000
0000
0000
0000
0000
0000
0000
0000
0000
0000
0000
0000
ENDCHAR
STARTCHAR c222c
ENCODING 8748
SWIDTH 500 0
DWIDTH 12 0
BBX 12 14 0 0
BITMAP
ffe0
7ff0
0c00
0c00
2f80
3fc0
3c60
1860
18e0
08c0
0400
0200
0100
0080
ENDCHAR
STARTCHAR c222d
ENCODING 8749
SWIDTH 500 0
DWIDTH 12 0
BBX 12 27 0 -5
BITMAP
0000
0000
0000
0000
0000
0000
0000
0000
0000
0000
0000
0000
0000
0000
0000
0000
0000
0000
0000
0000
0000
0000
0000
0000
0000
0000
0000
ENDCHAR
STARTCHAR c222e
ENCODING 8750
SWIDTH 500 0
DWIDTH 12 0
BBX 12 15 0 -1
BITMAP
ffe0
7ff0
0c00
0c00
2f80
3fc0
3c60
1860
18e0
08c0
0400
0200
1100
3880
1000
ENDCHAR
STARTCHAR c222f
ENCODING 8751
SWIDTH 500 0
DWIDTH 12 0
BBX 12 27 0 -5
BITMAP
0000
0000
0000
0000
0000
0000
0000
0000
0000
0000
0000
0000
0000
0000
0000
0000
0000
0000
0000
0000
0000
0000
0000
0000
0000
0000
0000
ENDCHAR
STARTCHAR c2230
ENCODING 8752
SWIDTH 500 0
DWIDTH 12 0
BBX 12 27 0 -5
BITMAP
0000
0000
0000
0000
0000
0000
0000
0000
0000
0000
0000
0000
0000
0000
0000
0000
0000
0000
0000
0000
0000
0000
0000
0000
0000
0000
0000
ENDCHAR
STARTCHAR c2231
ENCODING 8753
SWIDTH 500 0
DWIDTH 12 0
BBX 12 27 0 -5
BITMAP
0000
0000
0000
0000
0000
0000
0000
0000
0000
0000
0000
0000
0000
0000
0000
0000
0000
0000
0000
0000
0000
0000
0000
0000
0000
0000
0000
ENDCHAR
STARTCHAR c2232
ENCODING 8754
SWIDTH 500 0
DWIDTH 12 0
BBX 12 27 0 -5
BITMAP
0000
0000
0000
0000
0000
0000
0000
0000
0000
0000
0000
0000
0000
0000
0000
0000
0000
0000
0000
0000
0000
0000
0000
0000
0000
0000
0000
ENDCHAR
STARTCHAR c2233
ENCODING 8755
SWIDTH 500 0
DWIDTH 12 0
BBX 12 14 0 0
BITMAP
fff0
7ff0
0600
7e00
ffc0
c7e0
c610
c600
7e00
3e00
0600
0600
0600
0200
ENDCHAR
STARTCHAR c2234
ENCODING 8756
SWIDTH 500 0
DWIDTH 12 0
BBX 12 14 0 0
BITMAP
fff0
7ff0
1800
3800
b7c0
ffe0
fc30
6c30
67f0
23e0
1000
0800
0400
0200
ENDCHAR
STARTCHAR c2235
ENCODING 8757
SWIDTH 500 0
DWIDTH 12 0
BBX 12 10 0 4
BITMAP
fff0
7ff0
0300
0300
0300
0300
0f00
0f00
0700
0700
ENDCHAR
STARTCHAR c2236
ENCODING 8758
SWIDTH 500 0
DWIDTH 12 0
BBX 12 10 0 4
BITMAP
fff0
7ff0
6000
2000
1e00
3f00
3040
31e0
1fc0
0f00
ENDCHAR
STARTCHAR c2237
ENCODING 8759
SWIDTH 500 0
DWIDTH 12 0
BBX 12 27 0 -5
BITMAP
0000
0000
0000
0000
0000
0000
0000
0000
0000
0000
0000
0000
0000
0000
0000
0000
0000
0000
0000
0000
0000
0000
0000
0000
0000
0000
0000
ENDCHAR
STARTCHAR c2238
ENCODING 8760
SWIDTH 500 0
DWIDTH 12 0
BBX 12 10 0 4
BITMAP
fff0
7ff0
0000
0000
ff00
7f80
3000
3040
1fe0
0fc0
ENDCHAR
STARTCHAR c2239
ENCODING 8761
SWIDTH 500 0
DWIDTH 12 0
BBX 12 27 0 -5
BITMAP
0000
0000
0000
0000
0000
0000
0000
0000
0000
0000
0000
0000
0000
0000
0000
0000
0000
0000
0000
0000
0000
0000
0000
0000
0000
0000
0000
ENDCHAR
STARTCHAR c223a
ENCODING 8762
SWIDTH 500 0
DWIDTH 12 0
BBX 12 12 0 2
BITMAP
fff0
7ff0
0000
0000
8fe0
c7f0
c200
4300
6300
2300
1f00
0e00
ENDCHAR
STARTCHAR c223b
ENCODING 8763
SWIDTH 500 0
DWIDTH 12 0
BBX 12 15 0 -1
BITMAP
fff0
7ff0
0600
7e00
fe00
c000
7c60
3ff0
03c0
7700
fe00
7c00
0200
0300
0100
ENDCHAR
STARTCHAR c223c
ENCODING 8764
SWIDTH 500 0
DWIDTH 12 0
BBX 12 12 0 2
BITMAP
fff0
7ff0
0000
4000
7000
1800
0fc0
8fe0
cc00
dc00
7800
3000
ENDCHAR
STARTCHAR c223d
ENCODING 8765
SWIDTH 500 0
DWIDTH 12 0
BBX 12 27 0 -5
BITMAP
0000
0000
0000
0000
0000
0000
0000
0000
0000
0000
0000
0000
0000
0000
0000
0000
0000
0000
0000
0000
0000
0000
0000
0000
0000
0000
0000
ENDCHAR
STARTCHAR c223e
ENCODING 8766
SWIDTH 500 0
DWIDTH 12 0
BBX 12 27 0 -5
BITMAP
0000
0000
0000
0000
0000
0000
0000
0000
0000
0000
0000
0000
0000
0000
0000
0000
0000
0000
0000
0000
0000
0000
0000
0000
0000
0000
0000
ENDCHAR
STARTCHAR c223f
ENCODING 8767
SWIDTH 500 0
DWIDTH 12 0
BBX 12 27 0 -5
BITMAP
0000
0000
0000
0000
0000
0000
0000
0000
0000
0000
0000
0000
0000
0000
0000
0000
0000
0000
0000
0000
0000
0000
0000
0000
0000
0000
0000
ENDCHAR
STARTCHAR c2240
ENCODING 8768
SWIDTH 500 0
DWIDTH 12 0
BBX 12 27 0 -5
BITMAP
0000
0000
0000
0000
0000
0000
0000
0000
0000
0000
0000
0000
0000
0000
0000
0000
0000
0000
0000
0000
0000
0000
0000
0000
0000
0000
0000
ENDCHAR
STARTCHAR c2241
ENCODING 8769
SWIDTH 500 0
DWIDTH 12 0
BBX 12 10 0 4
BITMAP
fff0
7ff0
1980
1980
1980
1980
1980
1980
0f80
0700
ENDCHAR
STARTCHAR c2242
ENCODING 8770
SWIDTH 500 0
DWIDTH 12 0
BBX 12 14 0 0
BITMAP
fff0
7ff0
0000
0000
3f80
7fc0
6000
6000
6000
2000
3000
1000
0800
0400
ENDCHAR
STARTCHAR c2243
ENCODING 8771
SWIDTH 500 0
DWIDTH 12 0
BBX 12 10 0 4
BITMAP
31f0
78f0
6c00
6c00
3c00
7c40
7060
20e0
1fc0
0f80
ENDCHAR
STARTCHAR c2244
ENCODING 8772
SWIDTH 500 0
DWIDTH 12 0
BBX 12 27 0 -5
BITMAP
0000
0000
0000
0000
0000
0000
0000
0000
0000
0000
0000
0000
0000
0000
0000
0000
0000
0000
0000
0000
0000
0000
0000
0000
0000
0000
0000
ENDCHAR
STARTCHAR c2245
ENCODING 8773
SWIDTH 500 0
DWIDTH 12 0
BBX 12 10 0 4
BITMAP
21f0
70f0
6000
2000
1e00
3f00
3040
31e0
1fc0
0f00
ENDCHAR
STARTCHAR c2246
ENCODING 8774
SWIDTH 500 0
DWIDTH 12 0
BBX 12 9 0 5
BITMAP
fff0
7ff0
0000
0000
0000
1fc0
3fe0
1c00
0800
ENDCHAR
STARTCHAR c2247
ENCODING 8775
SWIDTH 500 0
DWIDTH 12 0
BBX 12 15 0 -1
BITMAP
fff0
7ff0
0000
0000
0000
1fc0
3fe0
1c00
0800
0000
0000
0000
0400
0e00
0400
ENDCHAR
STARTCHAR c2248
ENCODING 8776
SWIDTH 500 0
DWIDTH 12 0
BBX 12 9 0 5
BITMAP
fff0
7ff0
3000
3000
3000
1000
1880
0fc0
0780
ENDCHAR
STARTCHAR c2249
ENCODING 8777
SWIDTH 500 0
DWIDTH 12 0
BBX 12 14 0 0
BITMAP
fff0
fff0
c300
c300
c3e0
43f0
6310
3f00
1f00
0300
0300
0300
0300
0100
ENDCHAR
STARTCHAR c224a
ENCODING 8778
SWIDTH 500 0
DWIDTH 12 0
BBX 12 10 0 4
BITMAP
fff0
7ff0
0000
0000
1f00
3f80
34c0
32c0
1fc0
0f80
ENDCHAR
STARTCHAR c224b
ENCODING 8779
SWIDTH 500 0
DWIDTH 12 0
BBX 12 10 0 4
BITMAP
60f0
3070
0800
0c00
0c00
0c00
3fe0
3ff0
1c00
0c00
ENDCHAR
STARTCHAR c224c
ENCODING 8780
SWIDTH 500 0
DWIDTH 12 0
BBX 12 10 0 4
BITMAP
fff0
7ff0
1800
1800
1800
1800
7fe0
7ff0
7800
3800
ENDCHAR
STARTCHAR c224d
ENCODING 8781
SWIDTH 500 0
DWIDTH 12 0
BBX 12 10 0 4
BITMAP
fff0
7ff0
0c00
0c00
1c00
7840
7060
20e0
1fc0
0f80
ENDCHAR
STARTCHAR c224e
ENCODING 8782
SWIDTH 500 0
DWIDTH 12 0
BBX 12 17 0 -3
BITMAP
fff0
7ff0
0c00
0c00
1c00
7840
7060
20e0
1fc0
0f80
0000
0000
0000
0000
0200
0700
0200
ENDCHAR
STARTCHAR c224f
ENCODING 8783
SWIDTH 500 0
DWIDTH 12 0
BBX 12 27 0 -5
BITMAP
0000
0000
0000
0000
0000
0000
0000
0000
0000
0000
0000
0000
0000
0000
0000
0000
0000
0000
0000
0000
0000
0000
0000
0000
0000
0000
0000
ENDCHAR
STARTCHAR c2250
ENCODING 8784
SWIDTH 500 0
DWIDTH 12 0
BBX 12 27 0 -5
BITMAP
0000
0000
0000
0000
0000
0000
0000
0000
0000
0000
0000
0000
0000
0000
0000
0000
0000
0000
0000
0000
0000
0000
0000
0000
0000
0000
0000
ENDCHAR
STARTCHAR c2251
ENCODING 8785
SWIDTH 500 0
DWIDTH 12 0
BBX 12 14 0 0
BITMAP
fff0
7ff0
0000
0000
78e0
fdf0
c380
c300
c100
4000
6000
2000
1000
0800
ENDCHAR
STARTCHAR c2252
ENCODING 8786
SWIDTH 500 0
DWIDTH 12 0
BBX 12 27 0 -5
BITMAP
0000
0000
0000
0000
0000
0000
0000
0000
0000
0000
0000
0000
0000
0000
0000
0000
0000
0000
0000
0000
0000
0000
0000
0000
0000
0000
0000
ENDCHAR
STARTCHAR c2253
ENCODING 8787
SWIDTH 500 0
DWIDTH 12 0
BBX 12 27 0 -5
BITMAP
0000
0000
0000
0000
0000
0000
0000
0000
0000
0000
0000
0000
0000
0000
0000
0000
0000
0000
0000
0000
0000
0000
0000
0000
0000
0000
0000
ENDCHAR
STARTCHAR c2254
ENCODING 8788
SWIDTH 500 0
DWIDTH 12 0
BBX 12 10 0 4
BITMAP
fff0
7ff0
0000
0000
1f00
3f80
30c0
30c0
1fc0
0f80
ENDCHAR
STARTCHAR c2255
ENCODING 8789
SWIDTH 500 0
DWIDTH 12 0
BBX 12 14 0 0
BITMAP
fff0
7ff0
0c40
0c60
0c60
0460
03e0
01e0
3bc0
3f80
1f00
0080
00c0
0040
ENDCHAR
STARTCHAR c2256
ENCODING 8790
SWIDTH 500 0
DWIDTH 12 0
BBX 12 9 0 5
BITMAP
fff0
7ff0
1c00
1e00
1b00
0980
0cc0
07e0
03c0
ENDCHAR
STARTCHAR c2257
ENCODING 8791
SWIDTH 500 0
DWIDTH 12 0
BBX 12 14 0 0
BITMAP
fff0
7ff0
0c00
1c00
5800
7860
7ff0
37c0
3000
1000
1800
0800
0400
0200
ENDCHAR
STARTCHAR c2258
ENCODING 8792
SWIDTH 500 0
DWIDTH 12 0
BBX 12 27 0 -5
BITMAP
0000
0000
0000
0000
0000
0000
0000
0000
0000
0000
0000
0000
0000
0000
0000
0000
0000
0000
0000
0000
0000
0000
0000
0000
0000
0000
0000
ENDCHAR
STARTCHAR c2259
ENCODING 8793
SWIDTH 500 0
DWIDTH 12 0
BBX 12 27 0 -5
BITMAP
0000
0000
0000
0000
0000
0000
0000
0000
0000
0000
0000
0000
0000
0000
0000
0000
0000
0000
0000
0000
0000
0000
0000
0000
0000
0000
0000
ENDCHAR
STARTCHAR c225a
ENCODING 8794
SWIDTH 500 0
DWIDTH 12 0
BBX 12 27 0 -5
BITMAP
0000
0000
0000
0000
0000
0000
0000
0000
0000
0000
0000
0000
0000
0000
0000
0000
0000
0000
0000
0000
0000
0000
0000
0000
0000
0000
0000
ENDCHAR
STARTCHAR c225b
ENCODING 8795
SWIDTH 500 0
DWIDTH 12 0
BBX 12 27 0 -5
BITMAP
0000
0000
0000
0000
0000
0000
0000
0000
0000
0000
0000
0000
0000
0000
0000
0000
0000
0000
0000
0000
0000
0000
0000
0000
0000
0000
0000
ENDCHAR
STARTCHAR c225c
ENCODING 8796
SWIDTH 500 0
DWIDTH 12 0
BBX 12 27 0 -5
BITMAP
0000
0000
0000
0000
0000
0000
0000
0000
0000
0000
0000
0000
0000
0000
0000
0000
0000
0000
0000
0000
0000
0000
0000
0000
0000
0000
0000
ENDCHAR
STARTCHAR c225d
ENCODING 8797
SWIDTH 500 0
DWIDTH 12 0
BBX 12 14 0 0
BITMAP
ffe0
7ff0
00c0
60c0
70c0
18c0
18c0
18c0
3bc0
3fc0
0ec0
00c0
00c0
0040
ENDCHAR
STARTCHAR c225e
ENCODING 8798
SWIDTH 500 0
DWIDTH 12 0
BBX 12 27 0 -5
BITMAP
0000
0000
0000
0000
0000
0000
0000
0000
0000
0000
0000
0000
0000
0000
0000
0000
0000
0000
0000
0000
0000
0000
0000
0000
0000
0000
0000
ENDCHAR
STARTCHAR c225f
ENCODING 8799
SWIDTH 500 0
DWIDTH 12 0
BBX 12 27 0 -5
BITMAP
0000
0000
0000
0000
0000
0000
0000
0000
0000
0000
0000
0000
0000
0000
0000
0000
0000
0000
0000
0000
0000
0000
0000
0000
0000
0000
0000
ENDCHAR
STARTCHAR c2260
ENCODING 8800
SWIDTH 500 0
DWIDTH 12 0
BBX 12 11 0 3
BITMAP
fff0
7ff0
2000
3000
3000
3000
f020
f070
70e0
71c0
0080
ENDCHAR
STARTCHAR c2261
ENCODING 8801
SWIDTH 500 0
DWIDTH 12 0
BBX 12 14 0 0
BITMAP
fff0
fff0
6000
3c00
3e00
3040
30e0
1fc0
0f80
0000
1fc0
3fe0
1c00
0800
ENDCHAR
STARTCHAR c2262
ENCODING 8802
SWIDTH 500 0
DWIDTH 12 0
BBX 12 14 0 0
BITMAP
fff0
7ff0
7000
3800
0c20
0ff0
7fe0
3820
7e30
3f30
0c70
0ce0
07c0
0380
ENDCHAR
STARTCHAR c2263
ENCODING 8803
SWIDTH 500 0
DWIDTH 12 0
BBX 12 14 0 0
BITMAP
fff0
7ff0
0000
0000
ffe0
7ff0
3000
3000
3000
1000
1800
0800
0600
0300
ENDCHAR
STARTCHAR c2264
ENCODING 8804
SWIDTH 500 0
DWIDTH 12 0
BBX 12 11 0 3
BITMAP
fff0
7ff0
0000
1e00
3f00
1080
0040
01e0
07c0
1f00
0c00
ENDCHAR
STARTCHAR c2265
ENCODING 8805
SWIDTH 500 0
DWIDTH 12 0
BBX 12 14 0 -1
BITMAP
2000
7000
6000
3c00
3e00
3040
30e0
1fc0
0f80
0000
1fc0
3fe0
1c00
0800
ENDCHAR
STARTCHAR c2266
ENCODING 8806
SWIDTH 500 0
DWIDTH 12 0
BBX 12 14 0 0
BITMAP
1000
3800
3000
1000
0f00
1f80
1820
18f0
0ff0
07e0
0f80
3e00
7800
2000
ENDCHAR
STARTCHAR c2267
ENCODING 8807
SWIDTH 500 0
DWIDTH 12 0
BBX 12 14 0 0
BITMAP
fff0
7ff0
3000
3000
1000
0c00
07c0
1fe0
3c00
3000
1000
1800
0c00
0600
ENDCHAR
STARTCHAR c2268
ENCODING 8808
SWIDTH 500 0
DWIDTH 12 0
BBX 12 14 0 0
BITMAP
fff0
fff0
6600
6600
3e00
ff80
f1e0
0030
3fb0
1ff0
0630
0670
03e0
01c0
ENDCHAR
STARTCHAR c2269
ENCODING 8809
SWIDTH 500 0
DWIDTH 12 0
BBX 12 12 0 2
BITMAP
fff0
fff0
6600
6600
3e00
7f80
f1e0
40f0
03e0
0780
0e00
0400
ENDCHAR
STARTCHAR c226a
ENCODING 8810
SWIDTH 500 0
DWIDTH 12 0
BBX 12 12 0 2
BITMAP
fff0
fff0
6600
6600
3e00
ff80
f1e0
07f0
0f30
0c70
07e0
03c0
ENDCHAR
STARTCHAR c226b
ENCODING 8811
SWIDTH 500 0
DWIDTH 12 0
BBX 12 13 0 1
BITMAP
ffe0
7ff0
0000
3c00
3f00
3980
18e0
03e0
0780
0e00
0e00
0e00
0600
ENDCHAR
STARTCHAR c226c
ENCODING 8812
SWIDTH 500 0
DWIDTH 12 0
BBX 12 14 0 0
BITMAP
38f0
7c70
6600
6600
6e20
3cf0
7fe0
ef80
c200
c700
4380
3f00
1f00
0100
ENDCHAR
STARTCHAR c226d
ENCODING 8813
SWIDTH 500 0
DWIDTH 12 0
BBX 12 16 0 -2
BITMAP
fff0
7ff0
0000
0000
1e00
3f00
3080
1040
0820
0400
0600
7600
7e00
3c00
0200
0100
ENDCHAR
STARTCHAR c226e
ENCODING 8814
SWIDTH 500 0
DWIDTH 12 0
BBX 12 27 0 -5
BITMAP
0000
0000
0000
0000
0000
0000
0000
0000
0000
0000
0000
0000
0000
0000
0000
0000
0000
0000
0000
0000
0000
0000
0000
0000
0000
0000
0000
ENDCHAR
STARTCHAR c226f
ENCODING 8815
SWIDTH 500 0
DWIDTH 12 0
BBX 12 27 0 -5
BITMAP
0000
0000
0000
0000
0000
0000
0000
0000
0000
0000
0000
0000
0000
0000
0000
0000
0000
0000
0000
0000
0000
0000
0000
0000
0000
0000
0000
ENDCHAR
STARTCHAR c2270
ENCODING 8816
SWIDTH 500 0
DWIDTH 12 0
BBX 12 6 0 14
BITMAP
00e0
01f0
0180
0080
00c0
0060
ENDCHAR
STARTCHAR c2271
ENCODING 8817
SWIDTH 500 0
DWIDTH 12 0
BBX 12 7 0 0
BITMAP
0080
01c0
0380
0f00
1c00
3800
1000
ENDCHAR
STARTCHAR c2272
ENCODING 8818
SWIDTH 500 0
DWIDTH 12 0
BBX 12 6 0 -3
BITMAP
0300
0780
0ec0
0c40
1c00
0800
ENDCHAR
STARTCHAR c2273
ENCODING 8819
SWIDTH 500 0
DWIDTH 12 0
BBX 12 14 0 0
BITMAP
fff0
7ff0
0600
7e00
ffc0
c7e0
c610
c600
7e00
3e00
0600
2600
7600
2200
ENDCHAR
STARTCHAR c2274
ENCODING 8820
SWIDTH 500 0
DWIDTH 12 0
BBX 12 14 0 0
BITMAP
fff0
7ff0
3800
3000
b7c0
ffe0
fc30
6c30
67f0
23e0
3000
1100
1b80
0900
ENDCHAR
STARTCHAR c2275
ENCODING 8821
SWIDTH 500 0
DWIDTH 12 0
BBX 12 14 0 0
BITMAP
fff0
7ff0
0600
0600
0600
0600
1e00
1e00
0e00
0e00
0000
0080
01c0
0080
ENDCHAR
STARTCHAR c2276
ENCODING 8822
SWIDTH 500 0
DWIDTH 12 0
BBX 12 27 0 -5
BITMAP
0000
0000
0000
0000
0000
0000
0000
0000
0000
0000
0000
0000
0000
0000
0000
0000
0000
0000
0000
0000
0000
0000
0000
0000
0000
0000
0000
ENDCHAR
STARTCHAR c2277
ENCODING 8823
SWIDTH 500 0
DWIDTH 12 0
BBX 12 27 0 -5
BITMAP
0000
0000
0000
0000
0000
0000
0000
0000
0000
0000
0000
0000
0000
0000
0000
0000
0000
0000
0000
0000
0000
0000
0000
0000
0000
0000
0000
ENDCHAR
STARTCHAR c2278
ENCODING 8824
SWIDTH 500 0
DWIDTH 12 0
BBX 12 27 0 -5
BITMAP
0000
0000
0000
0000
0000
0000
0000
0000
0000
0000
0000
0000
0000
0000
0000
0000
0000
0000
0000
0000
0000
0000
0000
0000
0000
0000
0000
ENDCHAR
STARTCHAR c2279
ENCODING 8825
SWIDTH 500 0
DWIDTH 12 0
BBX 12 14 0 0
BITMAP
fff0
fff0
c300
c300
c3c0
43e0
6330
3f10
1f00
0300
0300
1300
3b00
1100
ENDCHAR
STARTCHAR c227a
ENCODING 8826
SWIDTH 500 0
DWIDTH 12 0
BBX 12 14 0 0
BITMAP
fff0
fff0
0000
0000
47f0
63f0
6100
2180
3180
1180
0f80
0740
00e0
0040
ENDCHAR
STARTCHAR c227b
ENCODING 8827
SWIDTH 500 0
DWIDTH 12 0
BBX 12 27 0 -5
BITMAP
0000
0000
0000
0000
0000
0000
0000
0000
0000
0000
0000
0000
0000
0000
0000
0000
0000
0000
0000
0000
0000
0000
0000
0000
0000
0000
0000
ENDCHAR
STARTCHAR c227c
ENCODING 8828
SWIDTH 500 0
DWIDTH 12 0
BBX 12 27 0 -5
BITMAP
0000
0000
0000
0000
0000
0000
0000
0000
0000
0000
0000
0000
0000
0000
0000
0000
0000
0000
0000
0000
0000
0000
0000
0000
0000
0000
0000
ENDCHAR
STARTCHAR c227d
ENCODING 8829
SWIDTH 500 0
DWIDTH 12 0
BBX 12 27 0 -5
BITMAP
0000
0000
0000
0000
0000
0000
0000
0000
0000
0000
0000
0000
0000
0000
0000
0000
0000
0000
0000
0000
0000
0000
0000
0000
0000
0000
0000
ENDCHAR
STARTCHAR c227e
ENCODING 8830
SWIDTH 500 0
DWIDTH 12 0
BBX 12 27 0 -5
BITMAP
0000
0000
0000
0000
0000
0000
0000
0000
0000
0000
0000
0000
0000
0000
0000
0000
0000
0000
0000
0000
0000
0000
0000
0000
0000
0000
0000
ENDCHAR
STARTCHAR c2321
ENCODING 8993
SWIDTH 500 0
DWIDTH 12 0
BBX 12 27 0 -5
BITMAP
0000
0000
0000
0000
0000
0000
0000
0000
0000
0000
0000
0000
0000
0000
0000
0000
0000
0000
0000
0000
0000
0000
0000
0000
0000
0000
0000
ENDCHAR
STARTCHAR c2322
ENCODING 8994
SWIDTH 500 0
DWIDTH 12 0
BBX 12 27 0 -5
BITMAP
0000
0000
0000
0000
0000
0000
0000
0000
0000
0000
0000
0000
0000
0000
0000
0000
0000
0000
0000
0000
0000
0000
0000
0000
0000
0000
0000
ENDCHAR
STARTCHAR c2323
ENCODING 8995
SWIDTH 500 0
DWIDTH 12 0
BBX 12 27 0 -5
BITMAP
0000
0000
0000
0000
0000
0000
0000
0000
0000
0000
0000
0000
0000
0000
0000
0000
0000
0000
0000
0000
0000
0000
0000
0000
0000
0000
0000
ENDCHAR
STARTCHAR c2324
ENCODING 8996
SWIDTH 500 0
DWIDTH 12 0
BBX 12 27 0 -5
BITMAP
0000
0000
0000
0000
0000
0000
0000
0000
0000
0000
0000
0000
0000
0000
0000
0000
0000
0000
0000
0000
0000
0000
0000
0000
0000
0000
0000
ENDCHAR
STARTCHAR c2325
ENCODING 8997
SWIDTH 500 0
DWIDTH 12 0
BBX 12 27 0 -5
BITMAP
0000
0000
0000
0000
0000
0000
0000
0000
0000
0000
0000
0000
0000
0000
0000
0000
0000
0000
0000
0000
0000
0000
0000
0000
0000
0000
0000
ENDCHAR
STARTCHAR c2326
ENCODING 8998
SWIDTH 500 0
DWIDTH 12 0
BBX 12 27 0 -5
BITMAP
0000
0000
0000
0000
0000
0000
0000
0000
0000
0000
0000
0000
0000
0000
0000
0000
0000
0000
0000
0000
0000
0000
0000
0000
0000
0000
0000
ENDCHAR
STARTCHAR c2327
ENCODING 8999
SWIDTH 500 0
DWIDTH 12 0
BBX 12 27 0 -5
BITMAP
0000
0000
0000
0000
0000
0000
0000
0000
0000
0000
0000
0000
0000
0000
0000
0000
0000
0000
0000
0000
0000
0000
0000
0000
0000
0000
0000
ENDCHAR
STARTCHAR c2328
ENCODING 9000
SWIDTH 500 0
DWIDTH 12 0
BBX 12 27 0 -5
BITMAP
0000
0000
0000
0000
0000
0000
0000
0000
0000
0000
0000
0000
0000
0000
0000
0000
0000
0000
0000
0000
0000
0000
0000
0000
0000
0000
0000
ENDCHAR
STARTCHAR c2329
ENCODING 9001
SWIDTH 500 0
DWIDTH 12 0
BBX 12 27 0 -5
BITMAP
0000
0000
0000
0000
0000
0000
0000
0000
0000
0000
0000
0000
0000
0000
0000
0000
0000
0000
0000
0000
0000
0000
0000
0000
0000
0000
0000
ENDCHAR
STARTCHAR c232a
ENCODING 9002
SWIDTH 500 0
DWIDTH 12 0
BBX 12 27 0 -5
BITMAP
0000
0000
0000
0000
0000
0000
0000
0000
0000
0000
0000
0000
0000
0000
0000
0000
0000
0000
0000
0000
0000
0000
0000
0000
0000
0000
0000
ENDCHAR
STARTCHAR c232b
ENCODING 9003
SWIDTH 500 0
DWIDTH 12 0
BBX 12 27 0 -5
BITMAP
0000
0000
0000
0000
0000
0000
0000
0000
0000
0000
0000
0000
0000
0000
0000
0000
0000
0000
0000
0000
0000
0000
0000
0000
0000
0000
0000
ENDCHAR
STARTCHAR c232c
ENCODING 9004
SWIDTH 500 0
DWIDTH 12 0
BBX 12 27 0 -5
BITMAP
0000
0000
0000
0000
0000
0000
0000
0000
0000
0000
0000
0000
0000
0000
0000
0000
0000
0000
0000
0000
0000
0000
0000
0000
0000
0000
0000
ENDCHAR
STARTCHAR c232d
ENCODING 9005
SWIDTH 500 0
DWIDTH 12 0
BBX 12 27 0 -5
BITMAP
0000
0000
0000
0000
0000
0000
0000
0000
0000
0000
0000
0000
0000
0000
0000
0000
0000
0000
0000
0000
0000
0000
0000
0000
0000
0000
0000
ENDCHAR
STARTCHAR c232e
ENCODING 9006
SWIDTH 500 0
DWIDTH 12 0
BBX 12 27 0 -5
BITMAP
0000
0000
0000
0000
0000
0000
0000
0000
0000
0000
0000
0000
0000
0000
0000
0000
0000
0000
0000
0000
0000
0000
0000
0000
0000
0000
0000
ENDCHAR
STARTCHAR c232f
ENCODING 9007
SWIDTH 500 0
DWIDTH 12 0
BBX 12 27 0 -5
BITMAP
0000
0000
0000
0000
0000
0000
0000
0000
0000
0000
0000
0000
0000
0000
0000
0000
0000
0000
0000
0000
0000
0000
0000
0000
0000
0000
0000
ENDCHAR
STARTCHAR c2330
ENCODING 9008
SWIDTH 500 0
DWIDTH 12 0
BBX 12 27 0 -5
BITMAP
0000
0000
0000
0000
0000
0000
0000
0000
0000
0000
0000
0000
0000
0000
0000
0000
0000
0000
0000
0000
0000
0000
0000
0000
0000
0000
0000
ENDCHAR
STARTCHAR c2331
ENCODING 9009
SWIDTH 500 0
DWIDTH 12 0
BBX 12 27 0 -5
BITMAP
0000
0000
0000
0000
0000
0000
0000
0000
0000
0000
0000
0000
0000
0000
0000
0000
0000
0000
0000
0000
0000
0000
0000
0000
0000
0000
0000
ENDCHAR
STARTCHAR c2332
ENCODING 9010
SWIDTH 500 0
DWIDTH 12 0
BBX 12 27 0 -5
BITMAP
0000
0000
0000
0000
0000
0000
0000
0000
0000
0000
0000
0000
0000
0000
0000
0000
0000
0000
0000
0000
0000
0000
0000
0000
0000
0000
0000
ENDCHAR
STARTCHAR c2333
ENCODING 9011
SWIDTH 500 0
DWIDTH 12 0
BBX 12 27 0 -5
BITMAP
0000
0000
0000
0000
0000
0000
0000
0000
0000
0000
0000
0000
0000
0000
0000
0000
0000
0000
0000
0000
0000
0000
0000
0000
0000
0000
0000
ENDCHAR
STARTCHAR c2334
ENCODING 9012
SWIDTH 500 0
DWIDTH 12 0
BBX 12 27 0 -5
BITMAP
0000
0000
0000
0000
0000
0000
0000
0000
0000
0000
0000
0000
0000
0000
0000
0000
0000
0000
0000
0000
0000
0000
0000
0000
0000
0000
0000
ENDCHAR
STARTCHAR c2335
ENCODING 9013
SWIDTH 500 0
DWIDTH 12 0
BBX 12 14 0 0
BITMAP
fff0
fff0
1060
1860
1860
1860
7860
7860
3860
3860
0060
0260
0760
0220
ENDCHAR
STARTCHAR c2336
ENCODING 9014
SWIDTH 500 0
DWIDTH 12 0
BBX 12 27 0 -5
BITMAP
0000
0000
0000
0000
0000
0000
0000
0000
0000
0000
0000
0000
0000
0000
0000
0000
0000
0000
0000
0000
0000
0000
0000
0000
0000
0000
0000
ENDCHAR
STARTCHAR c2337
ENCODING 9015
SWIDTH 500 0
DWIDTH 12 0
BBX 12 27 0 -5
BITMAP
0000
0000
0000
0000
0000
0000
0000
0000
0000
0000
0000
0000
0000
0000
0000
0000
0000
0000
0000
0000
0000
0000
0000
0000
0000
0000
0000
ENDCHAR
STARTCHAR c2338
ENCODING 9016
SWIDTH 500 0
DWIDTH 12 0
BBX 12 27 0 -5
BITMAP
0000
0000
0000
0000
0000
0000
0000
0000
0000
0000
0000
0000
0000
0000
0000
0000
0000
0000
0000
0000
0000
0000
0000
0000
0000
0000
0000
ENDCHAR
STARTCHAR c2339
ENCODING 9017
SWIDTH 500 0
DWIDTH 12 0
BBX 12 27 0 -5
BITMAP
0000
0000
0000
0000
0000
0000
0000
0000
0000
0000
0000
0000
0000
0000
0000
0000
0000
0000
0000
0000
0000
0000
0000
0000
0000
0000
0000
ENDCHAR
STARTCHAR c233a
ENCODING 9018
SWIDTH 500 0
DWIDTH 12 0
BBX 12 27 0 -5
BITMAP
0000
0000
0000
0000
0000
0000
0000
0000
0000
0000
0000
0000
0000
0000
0000
0000
0000
0000
0000
0000
0000
0000
0000
0000
0000
0000
0000
ENDCHAR
STARTCHAR c233b
ENCODING 9019
SWIDTH 500 0
DWIDTH 12 0
BBX 12 27 0 -5
BITMAP
0000
0000
0000
0000
0000
0000
0000
0000
0000
0000
0000
0000
0000
0000
0000
0000
0000
0000
0000
0000
0000
0000
0000
0000
0000
0000
0000
ENDCHAR
STARTCHAR c233c
ENCODING 9020
SWIDTH 500 0
DWIDTH 12 0
BBX 12 27 0 -5
BITMAP
0000
0000
0000
0000
0000
0000
0000
0000
0000
0000
0000
0000
0000
0000
0000
0000
0000
0000
0000
0000
0000
0000
0000
0000
0000
0000
0000
ENDCHAR
STARTCHAR c233d
ENCODING 9021
SWIDTH 500 0
DWIDTH 12 0
BBX 12 27 0 -5
BITMAP
0000
0000
0000
0000
0000
0000
0000
0000
0000
0000
0000
0000
0000
0000
0000
0000
0000
0000
0000
0000
0000
0000
0000
0000
0000
0000
0000
ENDCHAR
STARTCHAR c233e
ENCODING 9022
SWIDTH 500 0
DWIDTH 12 0
BBX 12 27 0 -5
BITMAP
0000
0000
0000
0000
0000
0000
0000
0000
0000
0000
0000
0000
0000
0000
0000
0000
0000
0000
0000
0000
0000
0000
0000
0000
0000
0000
0000
ENDCHAR
STARTCHAR c233f
ENCODING 9023
SWIDTH 500 0
DWIDTH 12 0
BBX 12 16 0 -2
BITMAP
ffe0
7ff0
00c0
0fc0
1fc0
1800
0f80
47c0
6060
20e0
1fc0
0f80
0000
0100
0380
0100
ENDCHAR
STARTCHAR c2340
ENCODING 9024
SWIDTH 500 0
DWIDTH 12 0
BBX 12 17 0 -3
BITMAP
ffe0
7ff0
0180
1f80
3f80
7000
6000
6380
67c0
2e60
1c60
0fe0
07c0
0000
0200
0700
0200
ENDCHAR
STARTCHAR c2341
ENCODING 9025
SWIDTH 500 0
DWIDTH 12 0
BBX 12 27 0 -5
BITMAP
0000
0000
0000
0000
0000
0000
0000
0000
0000
0000
0000
0000
0000
0000
0000
0000
0000
0000
0000
0000
0000
0000
0000
0000
0000
0000
0000
ENDCHAR
STARTCHAR c2342
ENCODING 9026
SWIDTH 500 0
DWIDTH 12 0
BBX 12 27 0 -5
BITMAP
0000
0000
0000
0000
0000
0000
0000
0000
0000
0000
0000
0000
0000
0000
0000
0000
0000
0000
0000
0000
0000
0000
0000
0000
0000
0000
0000
ENDCHAR
STARTCHAR c2343
ENCODING 9027
SWIDTH 500 0
DWIDTH 12 0
BBX 12 27 0 -5
BITMAP
0000
0000
0000
0000
0000
0000
0000
0000
0000
0000
0000
0000
0000
0000
0000
0000
0000
0000
0000
0000
0000
0000
0000
0000
0000
0000
0000
ENDCHAR
STARTCHAR c2344
ENCODING 9028
SWIDTH 500 0
DWIDTH 12 0
BBX 12 27 0 -5
BITMAP
0000
0000
0000
0000
0000
0000
0000
0000
0000
0000
0000
0000
0000
0000
0000
0000
0000
0000
0000
0000
0000
0000
0000
0000
0000
0000
0000
ENDCHAR
STARTCHAR c2345
ENCODING 9029
SWIDTH 500 0
DWIDTH 12 0
BBX 12 27 0 -5
BITMAP
0000
0000
0000
0000
0000
0000
0000
0000
0000
0000
0000
0000
0000
0000
0000
0000
0000
0000
0000
0000
0000
0000
0000
0000
0000
0000
0000
ENDCHAR
STARTCHAR c2346
ENCODING 9030
SWIDTH 500 0
DWIDTH 12 0
BBX 12 27 0 -5
BITMAP
0000
0000
0000
0000
0000
0000
0000
0000
0000
0000
0000
0000
0000
0000
0000
0000
0000
0000
0000
0000
0000
0000
0000
0000
0000
0000
0000
ENDCHAR
STARTCHAR c2347
ENCODING 9031
SWIDTH 500 0
DWIDTH 12 0
BBX 12 27 0 -5
BITMAP
0000
0000
0000
0000
0000
0000
0000
0000
0000
0000
0000
0000
0000
0000
0000
0000
0000
0000
0000
0000
0000
0000
0000
0000
0000
0000
0000
ENDCHAR
STARTCHAR c2348
ENCODING 9032
SWIDTH 500 0
DWIDTH 12 0
BBX 12 27 0 -5
BITMAP
0000
0000
0000
0000
0000
0000
0000
0000
0000
0000
0000
0000
0000
0000
0000
0000
0000
0000
0000
0000
0000
0000
0000
0000
0000
0000
0000
ENDCHAR
STARTCHAR c2349
ENCODING 9033
SWIDTH 500 0
DWIDTH 12 0
BBX 12 27 0 -5
BITMAP
0000
0000
0000
0000
0000
0000
0000
0000
0000
0000
0000
0000
0000
0000
0000
0000
0000
0000
0000
0000
0000
0000
0000
0000
0000
0000
0000
ENDCHAR
STARTCHAR c234a
ENCODING 9034
SWIDTH 500 0
DWIDTH 12 0
BBX 12 14 0 0
BITMAP
1fc0
3fe0
3000
3000
3000
1000
0c00
4600
6100
6180
6180
2380
1f00
0e00
ENDCHAR
STARTCHAR c234b
ENCODING 9035
SWIDTH 500 0
DWIDTH 12 0
BBX 12 8 0 -5
BITMAP
0e00
3f00
3000
3080
1f80
1f00
18c0
0fc0
ENDCHAR
STARTCHAR c234c
ENCODING 9036
SWIDTH 500 0
DWIDTH 12 0
BBX 12 7 0 -4
BITMAP
3b00
7f80
6cc0
6dc0
6180
01e0
00e0
ENDCHAR
STARTCHAR c234d
ENCODING 9037
SWIDTH 500 0
DWIDTH 12 0
BBX 12 8 0 -5
BITMAP
3b00
7f80
6cc0
6dc0
6180
01e0
01e0
01e0
ENDCHAR
STARTCHAR c234e
ENCODING 9038
SWIDTH 500 0
DWIDTH 12 0
BBX 12 27 0 -5
BITMAP
0000
0000
0000
0000
0000
0000
0000
0000
0000
0000
0000
0000
0000
0000
0000
0000
0000
0000
0000
0000
0000
0000
0000
0000
0000
0000
0000
ENDCHAR
STARTCHAR c234f
ENCODING 9039
SWIDTH 500 0
DWIDTH 12 0
BBX 12 27 0 -5
BITMAP
0000
0000
0000
0000
0000
0000
0000
0000
0000
0000
0000
0000
0000
0000
0000
0000
0000
0000
0000
0000
0000
0000
0000
0000
0000
0000
0000
ENDCHAR
STARTCHAR c2350
ENCODING 9040
SWIDTH 500 0
DWIDTH 12 0
BBX 12 27 0 -5
BITMAP
0000
0000
0000
0000
0000
0000
0000
0000
0000
0000
0000
0000
0000
0000
0000
0000
0000
0000
0000
0000
0000
0000
0000
0000
0000
0000
0000
ENDCHAR
STARTCHAR c2351
ENCODING 9041
SWIDTH 500 0
DWIDTH 12 0
BBX 12 27 0 -5
BITMAP
0000
0000
0000
0000
0000
0000
0000
0000
0000
0000
0000
0000
0000
0000
0000
0000
0000
0000
0000
0000
0000
0000
0000
0000
0000
0000
0000
ENDCHAR
STARTCHAR c2352
ENCODING 9042
SWIDTH 500 0
DWIDTH 12 0
BBX 12 17 0 -3
BITMAP
ffe0
7ff0
0180
3f80
7f80
6000
6000
3f00
3f80
78c0
63c0
6780
2600
13e0
0de0
0700
0180
ENDCHAR
STARTCHAR c2353
ENCODING 9043
SWIDTH 500 0
DWIDTH 12 0
BBX 12 27 0 -5
BITMAP
0000
0000
0000
0000
0000
0000
0000
0000
0000
0000
0000
0000
0000
0000
0000
0000
0000
0000
0000
0000
0000
0000
0000
0000
0000
0000
0000
ENDCHAR
STARTCHAR c2354
ENCODING 9044
SWIDTH 500 0
DWIDTH 12 0
BBX 12 27 0 -5
BITMAP
0000
0000
0000
0000
0000
0000
0000
0000
0000
0000
0000
0000
0000
0000
0000
0000
0000
0000
0000
0000
0000
0000
0000
0000
0000
0000
0000
ENDCHAR
STARTCHAR c2355
ENCODING 9045
SWIDTH 500 0
DWIDTH 12 0
BBX 12 27 0 -5
BITMAP
0000
0000
0000
0000
0000
0000
0000
0000
0000
0000
0000
0000
0000
0000
0000
0000
0000
0000
0000
0000
0000
0000
0000
0000
0000
0000
0000
ENDCHAR
STARTCHAR c2356
ENCODING 9046
SWIDTH 500 0
DWIDTH 12 0
BBX 12 27 0 -5
BITMAP
0000
0000
0000
0000
0000
0000
0000
0000
0000
0000
0000
0000
0000
0000
0000
0000
0000
0000
0000
0000
0000
0000
0000
0000
0000
0000
0000
ENDCHAR
STARTCHAR c2357
ENCODING 9047
SWIDTH 500 0
DWIDTH 12 0
BBX 12 27 0 -5
BITMAP
0000
0000
0000
0000
0000
0000
0000
0000
0000
0000
0000
0000
0000
0000
0000
0000
0000
0000
0000
0000
0000
0000
0000
0000
0000
0000
0000
ENDCHAR
STARTCHAR c2358
ENCODING 9048
SWIDTH 500 0
DWIDTH 12 0
BBX 12 27 0 -5
BITMAP
0000
0000
0000
0000
0000
0000
0000
0000
0000
0000
0000
0000
0000
0000
0000
0000
0000
0000
0000
0000
0000
0000
0000
0000
0000
0000
0000
ENDCHAR
STARTCHAR c2359
ENCODING 9049
SWIDTH 500 0
DWIDTH 12 0
BBX 12 27 0 -5
BITMAP
0000
0000
0000
0000
0000
0000
0000
0000
0000
0000
0000
0000
0000
0000
0000
0000
0000
0000
0000
0000
0000
0000
0000
0000
0000
0000
0000
ENDCHAR
STARTCHAR c235a
ENCODING 9050
SWIDTH 500 0
DWIDTH 12 0
BBX 12 27 0 -5
BITMAP
0000
0000
0000
0000
0000
0000
0000
0000
0000
0000
0000
0000
0000
0000
0000
0000
0000
0000
0000
0000
0000
0000
0000
0000
0000
0000
0000
ENDCHAR
STARTCHAR c235b
ENCODING 9051
SWIDTH 500 0
DWIDTH 12 0
BBX 12 27 0 -5
BITMAP
0000
0000
0000
0000
0000
0000
0000
0000
0000
0000
0000
0000
0000
0000
0000
0000
0000
0000
0000
0000
0000
0000
0000
0000
0000
0000
0000
ENDCHAR
STARTCHAR c235c
ENCODING 9052
SWIDTH 500 0
DWIDTH 12 0
BBX 12 27 0 -5
BITMAP
0000
0000
0000
0000
0000
0000
0000
0000
0000
0000
0000
0000
0000
0000
0000
0000
0000
0000
0000
0000
0000
0000
0000
0000
0000
0000
0000
ENDCHAR
STARTCHAR c235d
ENCODING 9053
SWIDTH 500 0
DWIDTH 12 0
BBX 12 27 0 -5
BITMAP
0000
0000
0000
0000
0000
0000
0000
0000
0000
0000
0000
0000
0000
0000
0000
0000
0000
0000
0000
0000
0000
0000
0000
0000
0000
0000
0000
ENDCHAR
STARTCHAR c235e
ENCODING 9054
SWIDTH 500 0
DWIDTH 12 0
BBX 12 27 0 -5
BITMAP
0000
0000
0000
0000
0000
0000
0000
0000
0000
0000
0000
0000
0000
0000
0000
0000
0000
0000
0000
0000
0000
0000
0000
0000
0000
0000
0000
ENDCHAR
STARTCHAR c235f
ENCODING 9055
SWIDTH 500 0
DWIDTH 12 0
BBX 12 27 0 -5
BITMAP
0000
0000
0000
0000
0000
0000
0000
0000
0000
0000
0000
0000
0000
0000
0000
0000
0000
0000
0000
0000
0000
0000
0000
0000
0000
0000
0000
ENDCHAR
STARTCHAR c2360
ENCODING 9056
SWIDTH 500 0
DWIDTH 12 0
BBX 12 27 0 -5
BITMAP
0000
0000
0000
0000
0000
0000
0000
0000
0000
0000
0000
0000
0000
0000
0000
0000
0000
0000
0000
0000
0000
0000
0000
0000
0000
0000
0000
ENDCHAR
STARTCHAR c2361
ENCODING 9057
SWIDTH 500 0
DWIDTH 12 0
BBX 12 16 0 -2
BITMAP
ffe0
7ff0
00c0
1ec0
3fc0
70c0
60c0
21c0
1fc0
0fc0
00c0
3fc0
7fc0
38c0
10c0
0040
ENDCHAR
STARTCHAR c2362
ENCODING 9058
SWIDTH 500 0
DWIDTH 12 0
BBX 12 18 0 -4
BITMAP
ffe0
7ff0
1ec0
3fc0
70c0
60c0
21c0
1fc0
0fc0
1ec0
3fc0
70c0
60c0
21c0
1fc0
0fc0
00c0
0040
ENDCHAR
STARTCHAR c2363
ENCODING 9059
SWIDTH 500 0
DWIDTH 12 0
BBX 12 27 0 -5
BITMAP
0000
0000
0000
0000
0000
0000
0000
0000
0000
0000
0000
0000
0000
0000
0000
0000
0000
0000
0000
0000
0000
0000
0000
0000
0000
0000
0000
ENDCHAR
STARTCHAR c2364
ENCODING 9060
SWIDTH 500 0
DWIDTH 12 0
BBX 12 27 0 -5
BITMAP
0000
0000
0000
0000
0000
0000
0000
0000
0000
0000
0000
0000
0000
0000
0000
0000
0000
0000
0000
0000
0000
0000
0000
0000
0000
0000
0000
ENDCHAR
STARTCHAR c2365
ENCODING 9061
SWIDTH 500 0
DWIDTH 12 0
BBX 12 27 0 -5
BITMAP
0000
0000
0000
0000
0000
0000
0000
0000
0000
0000
0000
0000
0000
0000
0000
0000
0000
0000
0000
0000
0000
0000
0000
0000
0000
0000
0000
ENDCHAR
STARTCHAR c2366
ENCODING 9062
SWIDTH 500 0
DWIDTH 12 0
BBX 12 27 0 -5
BITMAP
0000
0000
0000
0000
0000
0000
0000
0000
0000
0000
0000
0000
0000
0000
0000
0000
0000
0000
0000
0000
0000
0000
0000
0000
0000
0000
0000
ENDCHAR
STARTCHAR c2367
ENCODING 9063
SWIDTH 500 0
DWIDTH 12 0
BBX 12 27 0 -5
BITMAP
0000
0000
0000
0000
0000
0000
0000
0000
0000
0000
0000
0000
0000
0000
0000
0000
0000
0000
0000
0000
0000
0000
0000
0000
0000
0000
0000
ENDCHAR
STARTCHAR c2368
ENCODING 9064
SWIDTH 500 0
DWIDTH 12 0
BBX 12 27 0 -5
BITMAP
0000
0000
0000
0000
0000
0000
0000
0000
0000
0000
0000
0000
0000
0000
0000
0000
0000
0000
0000
0000
0000
0000
0000
0000
0000
0000
0000
ENDCHAR
STARTCHAR c2369
ENCODING 9065
SWIDTH 500 0
DWIDTH 12 0
BBX 12 27 0 -5
BITMAP
0000
0000
0000
0000
0000
0000
0000
0000
0000
0000
0000
0000
0000
0000
0000
0000
0000
0000
0000
0000
0000
0000
0000
0000
0000
0000
0000
ENDCHAR
STARTCHAR c236a
ENCODING 9066
SWIDTH 500 0
DWIDTH 12 0
BBX 12 19 0 -5
BITMAP
fff0
7ff0
7180
6d80
6780
6380
2780
1f80
3c00
7000
6000
60e0
3fe0
7f80
6180
6380
3f80
1f80
0180
ENDCHAR
STARTCHAR c236b
ENCODING 9067
SWIDTH 500 0
DWIDTH 12 0
BBX 12 14 0 0
BITMAP
fff0
7ff0
7180
6d80
6780
6380
2780
1f80
3c00
7000
6000
60e0
3fe0
1f80
ENDCHAR
STARTCHAR c236c
ENCODING 9068
SWIDTH 500 0
DWIDTH 12 0
BBX 12 14 0 0
BITMAP
fff0
7ff0
7180
7980
6d80
6780
2f80
3f80
7840
6020
6030
2070
1fe0
0fc0
ENDCHAR
STARTCHAR c236d
ENCODING 9069
SWIDTH 500 0
DWIDTH 12 0
BBX 12 27 0 -5
BITMAP
0000
0000
0000
0000
0000
0000
0000
0000
0000
0000
0000
0000
0000
0000
0000
0000
0000
0000
0000
0000
0000
0000
0000
0000
0000
0000
0000
ENDCHAR
STARTCHAR c236e
ENCODING 9070
SWIDTH 500 0
DWIDTH 12 0
BBX 12 27 0 -5
BITMAP
0000
0000
0000
0000
0000
0000
0000
0000
0000
0000
0000
0000
0000
0000
0000
0000
0000
0000
0000
0000
0000
0000
0000
0000
0000
0000
0000
ENDCHAR
STARTCHAR c236f
ENCODING 9071
SWIDTH 500 0
DWIDTH 12 0
BBX 12 27 0 -5
BITMAP
0000
0000
0000
0000
0000
0000
0000
0000
0000
0000
0000
0000
0000
0000
0000
0000
0000
0000
0000
0000
0000
0000
0000
0000
0000
0000
0000
ENDCHAR
STARTCHAR c2370
ENCODING 9072
SWIDTH 500 0
DWIDTH 12 0
BBX 12 27 0 -5
BITMAP
0000
0000
0000
0000
0000
0000
0000
0000
0000
0000
0000
0000
0000
0000
0000
0000
0000
0000
0000
0000
0000
0000
0000
0000
0000
0000
0000
ENDCHAR
STARTCHAR c2371
ENCODING 9073
SWIDTH 500 0
DWIDTH 12 0
BBX 12 27 0 -5
BITMAP
0000
0000
0000
0000
0000
0000
0000
0000
0000
0000
0000
0000
0000
0000
0000
0000
0000
0000
0000
0000
0000
0000
0000
0000
0000
0000
0000
ENDCHAR
STARTCHAR c2372
ENCODING 9074
SWIDTH 500 0
DWIDTH 12 0
BBX 12 27 0 -5
BITMAP
0000
0000
0000
0000
0000
0000
0000
0000
0000
0000
0000
0000
0000
0000
0000
0000
0000
0000
0000
0000
0000
0000
0000
0000
0000
0000
0000
ENDCHAR
STARTCHAR c2373
ENCODING 9075
SWIDTH 500 0
DWIDTH 12 0
BBX 12 27 0 -5
BITMAP
0000
0000
0000
0000
0000
0000
0000
0000
0000
0000
0000
0000
0000
0000
0000
0000
0000
0000
0000
0000
0000
0000
0000
0000
0000
0000
0000
ENDCHAR
STARTCHAR c2374
ENCODING 9076
SWIDTH 500 0
DWIDTH 12 0
BBX 12 27 0 -5
BITMAP
0000
0000
0000
0000
0000
0000
0000
0000
0000
0000
0000
0000
0000
0000
0000
0000
0000
0000
0000
0000
0000
0000
0000
0000
0000
0000
0000
ENDCHAR
STARTCHAR c2375
ENCODING 9077
SWIDTH 500 0
DWIDTH 12 0
BBX 12 27 0 -5
BITMAP
0000
0000
0000
0000
0000
0000
0000
0000
0000
0000
0000
0000
0000
0000
0000
0000
0000
0000
0000
0000
0000
0000
0000
0000
0000
0000
0000
ENDCHAR
STARTCHAR c2376
ENCODING 9078
SWIDTH 500 0
DWIDTH 12 0
BBX 12 27 0 -5
BITMAP
0000
0000
0000
0000
0000
0000
0000
0000
0000
0000
0000
0000
0000
0000
0000
0000
0000
0000
0000
0000
0000
0000
0000
0000
0000
0000
0000
ENDCHAR
STARTCHAR c2377
ENCODING 9079
SWIDTH 500 0
DWIDTH 12 0
BBX 12 27 0 -5
BITMAP
0000
0000
0000
0000
0000
0000
0000
0000
0000
0000
0000
0000
0000
0000
0000
0000
0000
0000
0000
0000
0000
0000
0000
0000
0000
0000
0000
ENDCHAR
STARTCHAR c2378
ENCODING 9080
SWIDTH 500 0
DWIDTH 12 0
BBX 12 27 0 -5
BITMAP
0000
0000
0000
0000
0000
0000
0000
0000
0000
0000
0000
0000
0000
0000
0000
0000
0000
0000
0000
0000
0000
0000
0000
0000
0000
0000
0000
ENDCHAR
STARTCHAR c2379
ENCODING 9081
SWIDTH 500 0
DWIDTH 12 0
BBX 12 27 0 -5
BITMAP
0000
0000
0000
0000
0000
0000
0000
0000
0000
0000
0000
0000
0000
0000
0000
0000
0000
0000
0000
0000
0000
0000
0000
0000
0000
0000
0000
ENDCHAR
STARTCHAR c237a
ENCODING 9082
SWIDTH 500 0
DWIDTH 12 0
BBX 12 27 0 -5
BITMAP
0000
0000
0000
0000
0000
0000
0000
0000
0000
0000
0000
0000
0000
0000
0000
0000
0000
0000
0000
0000
0000
0000
0000
0000
0000
0000
0000
ENDCHAR
STARTCHAR c237b
ENCODING 9082
SWIDTH 500 0
DWIDTH 12 0
BBX 12 27 0 -5
BITMAP
0000
0000
0000
0000
0000
0000
0000
0000
0000
0000
0000
0000
0000
0000
0000
0000
0000
0000
0000
0000
0000
0000
0000
0000
0000
0000
0000
ENDCHAR
STARTCHAR c237c
ENCODING 9082
SWIDTH 500 0
DWIDTH 12 0
BBX 12 27 0 -5
BITMAP
0000
0000
0000
0000
0000
0000
0000
0000
0000
0000
0000
0000
0000
0000
0000
0000
0000
0000
0000
0000
0000
0000
0000
0000
0000
0000
0000
ENDCHAR
STARTCHAR c237d
ENCODING 9082
SWIDTH 500 0
DWIDTH 12 0
BBX 12 27 0 -5
BITMAP
0000
0000
0000
0000
0000
0000
0000
0000
0000
0000
0000
0000
0000
0000
0000
0000
0000
0000
0000
0000
0000
0000
0000
0000
0000
0000
0000
ENDCHAR
STARTCHAR c237e
ENCODING 9082
SWIDTH 500 0
DWIDTH 12 0
BBX 12 27 0 -5
BITMAP
0000
0000
0000
0000
0000
0000
0000
0000
0000
0000
0000
0000
0000
0000
0000
0000
0000
0000
0000
0000
0000
0000
0000
0000
0000
0000
0000
ENDCHAR
STARTCHAR c2421
ENCODING 9249
SWIDTH 500 0
DWIDTH 12 0
BBX 12 27 0 -5
BITMAP
0000
0000
0000
0000
0000
0000
0000
0000
0000
0000
0000
0000
0000
0000
0000
0000
0000
0000
0000
0000
0000
0000
0000
0000
0000
0000
0000
ENDCHAR
STARTCHAR c2422
ENCODING 9250
SWIDTH 500 0
DWIDTH 12 0
BBX 12 27 0 -5
BITMAP
0000
0000
0000
0000
0000
0000
0000
0000
0000
0000
0000
0000
0000
0000
0000
0000
0000
0000
0000
0000
0000
0000
0000
0000
0000
0000
0000
ENDCHAR
STARTCHAR c2423
ENCODING 9251
SWIDTH 500 0
DWIDTH 12 0
BBX 12 27 0 -5
BITMAP
0000
0000
0000
0000
0000
0000
0000
0000
0000
0000
0000
0000
0000
0000
0000
0000
0000
0000
0000
0000
0000
0000
0000
0000
0000
0000
0000
ENDCHAR
STARTCHAR c2424
ENCODING 9252
SWIDTH 500 0
DWIDTH 12 0
BBX 12 27 0 -5
BITMAP
0000
0000
0000
0000
0000
0000
0000
0000
0000
0000
0000
0000
0000
0000
0000
0000
0000
0000
0000
0000
0000
0000
0000
0000
0000
0000
0000
ENDCHAR
STARTCHAR c2425
ENCODING 9253
SWIDTH 500 0
DWIDTH 12 0
BBX 12 27 0 -5
BITMAP
0000
0000
0000
0000
0000
0000
0000
0000
0000
0000
0000
0000
0000
0000
0000
0000
0000
0000
0000
0000
0000
0000
0000
0000
0000
0000
0000
ENDCHAR
STARTCHAR c2426
ENCODING 9254
SWIDTH 500 0
DWIDTH 12 0
BBX 12 27 0 -5
BITMAP
0000
0000
0000
0000
0000
0000
0000
0000
0000
0000
0000
0000
0000
0000
0000
0000
0000
0000
0000
0000
0000
0000
0000
0000
0000
0000
0000
ENDCHAR
STARTCHAR c2427
ENCODING 9255
SWIDTH 500 0
DWIDTH 12 0
BBX 12 27 0 -5
BITMAP
0000
0000
0000
0000
0000
0000
0000
0000
0000
0000
0000
0000
0000
0000
0000
0000
0000
0000
0000
0000
0000
0000
0000
0000
0000
0000
0000
ENDCHAR
STARTCHAR c2428
ENCODING 9256
SWIDTH 500 0
DWIDTH 12 0
BBX 12 27 0 -5
BITMAP
0000
0000
0000
0000
0000
0000
0000
0000
0000
0000
0000
0000
0000
0000
0000
0000
0000
0000
0000
0000
0000
0000
0000
0000
0000
0000
0000
ENDCHAR
STARTCHAR c2429
ENCODING 9257
SWIDTH 500 0
DWIDTH 12 0
BBX 12 27 0 -5
BITMAP
0000
0000
0000
0000
0000
0000
0000
0000
0000
0000
0000
0000
0000
0000
0000
0000
0000
0000
0000
0000
0000
0000
0000
0000
0000
0000
0000
ENDCHAR
STARTCHAR c242a
ENCODING 9258
SWIDTH 500 0
DWIDTH 12 0
BBX 12 27 0 -5
BITMAP
0000
0000
0000
0000
0000
0000
0000
0000
0000
0000
0000
0000
0000
0000
0000
0000
0000
0000
0000
0000
0000
0000
0000
0000
0000
0000
0000
ENDCHAR
STARTCHAR c242b
ENCODING 9259
SWIDTH 500 0
DWIDTH 12 0
BBX 12 27 0 -5
BITMAP
0000
0000
0000
0000
0000
0000
0000
0000
0000
0000
0000
0000
0000
0000
0000
0000
0000
0000
0000
0000
0000
0000
0000
0000
0000
0000
0000
ENDCHAR
STARTCHAR c242c
ENCODING 9260
SWIDTH 500 0
DWIDTH 12 0
BBX 12 27 0 -5
BITMAP
0000
0000
0000
0000
0000
0000
0000
0000
0000
0000
0000
0000
0000
0000
0000
0000
0000
0000
0000
0000
0000
0000
0000
0000
0000
0000
0000
ENDCHAR
STARTCHAR c242d
ENCODING 9261
SWIDTH 500 0
DWIDTH 12 0
BBX 12 27 0 -5
BITMAP
0000
0000
0000
0000
0000
0000
0000
0000
0000
0000
0000
0000
0000
0000
0000
0000
0000
0000
0000
0000
0000
0000
0000
0000
0000
0000
0000
ENDCHAR
STARTCHAR c242e
ENCODING 9262
SWIDTH 500 0
DWIDTH 12 0
BBX 12 27 0 -5
BITMAP
0000
0000
0000
0000
0000
0000
0000
0000
0000
0000
0000
0000
0000
0000
0000
0000
0000
0000
0000
0000
0000
0000
0000
0000
0000
0000
0000
ENDCHAR
STARTCHAR c242f
ENCODING 9263
SWIDTH 500 0
DWIDTH 12 0
BBX 12 27 0 -5
BITMAP
0000
0000
0000
0000
0000
0000
0000
0000
0000
0000
0000
0000
0000
0000
0000
0000
0000
0000
0000
0000
0000
0000
0000
0000
0000
0000
0000
ENDCHAR
STARTCHAR c2430
ENCODING 9264
SWIDTH 500 0
DWIDTH 12 0
BBX 12 27 0 -5
BITMAP
0000
0000
0000
0000
0000
0000
0000
0000
0000
0000
0000
0000
0000
0000
0000
0000
0000
0000
0000
0000
0000
0000
0000
0000
0000
0000
0000
ENDCHAR
STARTCHAR c2431
ENCODING 9265
SWIDTH 500 0
DWIDTH 12 0
BBX 12 27 0 -5
BITMAP
0000
0000
0000
0000
0000
0000
0000
0000
0000
0000
0000
0000
0000
0000
0000
0000
0000
0000
0000
0000
0000
0000
0000
0000
0000
0000
0000
ENDCHAR
STARTCHAR c2432
ENCODING 9266
SWIDTH 500 0
DWIDTH 12 0
BBX 12 27 0 -5
BITMAP
0000
0000
0000
0000
0000
0000
0000
0000
0000
0000
0000
0000
0000
0000
0000
0000
0000
0000
0000
0000
0000
0000
0000
0000
0000
0000
0000
ENDCHAR
STARTCHAR c2433
ENCODING 9267
SWIDTH 500 0
DWIDTH 12 0
BBX 12 27 0 -5
BITMAP
0000
0000
0000
0000
0000
0000
0000
0000
0000
0000
0000
0000
0000
0000
0000
0000
0000
0000
0000
0000
0000
0000
0000
0000
0000
0000
0000
ENDCHAR
STARTCHAR c2434
ENCODING 9268
SWIDTH 500 0
DWIDTH 12 0
BBX 12 27 0 -5
BITMAP
0000
0000
0000
0000
0000
0000
0000
0000
0000
0000
0000
0000
0000
0000
0000
0000
0000
0000
0000
0000
0000
0000
0000
0000
0000
0000
0000
ENDCHAR
STARTCHAR c2435
ENCODING 9269
SWIDTH 500 0
DWIDTH 12 0
BBX 12 27 0 -5
BITMAP
0000
0000
0000
0000
0000
0000
0000
0000
0000
0000
0000
0000
0000
0000
0000
0000
0000
0000
0000
0000
0000
0000
0000
0000
0000
0000
0000
ENDCHAR
STARTCHAR c2436
ENCODING 9270
SWIDTH 500 0
DWIDTH 12 0
BBX 12 27 0 -5
BITMAP
0000
0000
0000
0000
0000
0000
0000
0000
0000
0000
0000
0000
0000
0000
0000
0000
0000
0000
0000
0000
0000
0000
0000
0000
0000
0000
0000
ENDCHAR
STARTCHAR c2437
ENCODING 9271
SWIDTH 500 0
DWIDTH 12 0
BBX 12 27 0 -5
BITMAP
0000
0000
0000
0000
0000
0000
0000
0000
0000
0000
0000
0000
0000
0000
0000
0000
0000
0000
0000
0000
0000
0000
0000
0000
0000
0000
0000
ENDCHAR
STARTCHAR c2438
ENCODING 9272
SWIDTH 500 0
DWIDTH 12 0
BBX 12 27 0 -5
BITMAP
0000
0000
0000
0000
0000
0000
0000
0000
0000
0000
0000
0000
0000
0000
0000
0000
0000
0000
0000
0000
0000
0000
0000
0000
0000
0000
0000
ENDCHAR
STARTCHAR c2439
ENCODING 9273
SWIDTH 500 0
DWIDTH 12 0
BBX 12 27 0 -5
BITMAP
0000
0000
0000
0000
0000
0000
0000
0000
0000
0000
0000
0000
0000
0000
0000
0000
0000
0000
0000
0000
0000
0000
0000
0000
0000
0000
0000
ENDCHAR
STARTCHAR c243a
ENCODING 9274
SWIDTH 500 0
DWIDTH 12 0
BBX 12 27 0 -5
BITMAP
0000
0000
0000
0000
0000
0000
0000
0000
0000
0000
0000
0000
0000
0000
0000
0000
0000
0000
0000
0000
0000
0000
0000
0000
0000
0000
0000
ENDCHAR
STARTCHAR c243b
ENCODING 9275
SWIDTH 500 0
DWIDTH 12 0
BBX 12 27 0 -5
BITMAP
0000
0000
0000
0000
0000
0000
0000
0000
0000
0000
0000
0000
0000
0000
0000
0000
0000
0000
0000
0000
0000
0000
0000
0000
0000
0000
0000
ENDCHAR
STARTCHAR c243c
ENCODING 9276
SWIDTH 500 0
DWIDTH 12 0
BBX 12 27 0 -5
BITMAP
0000
0000
0000
0000
0000
0000
0000
0000
0000
0000
0000
0000
0000
0000
0000
0000
0000
0000
0000
0000
0000
0000
0000
0000
0000
0000
0000
ENDCHAR
STARTCHAR c243d
ENCODING 9277
SWIDTH 500 0
DWIDTH 12 0
BBX 12 27 0 -5
BITMAP
0000
0000
0000
0000
0000
0000
0000
0000
0000
0000
0000
0000
0000
0000
0000
0000
0000
0000
0000
0000
0000
0000
0000
0000
0000
0000
0000
ENDCHAR
STARTCHAR c243e
ENCODING 9278
SWIDTH 500 0
DWIDTH 12 0
BBX 12 27 0 -5
BITMAP
0000
0000
0000
0000
0000
0000
0000
0000
0000
0000
0000
0000
0000
0000
0000
0000
0000
0000
0000
0000
0000
0000
0000
0000
0000
0000
0000
ENDCHAR
STARTCHAR c243f
ENCODING 9279
SWIDTH 500 0
DWIDTH 12 0
BBX 12 27 0 -5
BITMAP
0000
0000
0000
0000
0000
0000
0000
0000
0000
0000
0000
0000
0000
0000
0000
0000
0000
0000
0000
0000
0000
0000
0000
0000
0000
0000
0000
ENDCHAR
STARTCHAR c2440
ENCODING 9280
SWIDTH 500 0
DWIDTH 12 0
BBX 12 27 0 -5
BITMAP
0000
0000
0000
0000
0000
0000
0000
0000
0000
0000
0000
0000
0000
0000
0000
0000
0000
0000
0000
0000
0000
0000
0000
0000
0000
0000
0000
ENDCHAR
STARTCHAR c2441
ENCODING 9281
SWIDTH 500 0
DWIDTH 12 0
BBX 12 14 0 0
BITMAP
fff0
fff0
0060
0060
ff60
7fe0
1860
ff60
7fe0
3060
3060
31e0
1fe0
0f20
ENDCHAR
STARTCHAR c2442
ENCODING 9282
SWIDTH 500 0
DWIDTH 12 0
BBX 12 27 0 -5
BITMAP
0000
0000
0000
0000
0000
0000
0000
0000
0000
0000
0000
0000
0000
0000
0000
0000
0000
0000
0000
0000
0000
0000
0000
0000
0000
0000
0000
ENDCHAR
STARTCHAR c2443
ENCODING 9283
SWIDTH 500 0
DWIDTH 12 0
BBX 12 27 0 -5
BITMAP
0000
0000
0000
0000
0000
0000
0000
0000
0000
0000
0000
0000
0000
0000
0000
0000
0000
0000
0000
0000
0000
0000
0000
0000
0000
0000
0000
ENDCHAR
STARTCHAR c2444
ENCODING 9284
SWIDTH 500 0
DWIDTH 12 0
BBX 12 27 0 -5
BITMAP
0000
0000
0000
0000
0000
0000
0000
0000
0000
0000
0000
0000
0000
0000
0000
0000
0000
0000
0000
0000
0000
0000
0000
0000
0000
0000
0000
ENDCHAR
STARTCHAR c2445
ENCODING 9285
SWIDTH 500 0
DWIDTH 12 0
BBX 12 16 0 -2
BITMAP
ffe0
7ff0
0060
0060
1c60
3f60
31e0
1060
0860
0460
0660
7660
7e60
3c20
0200
0100
ENDCHAR
STARTCHAR c2446
ENCODING 9286
SWIDTH 500 0
DWIDTH 12 0
BBX 12 27 0 -5
BITMAP
0000
0000
0000
0000
0000
0000
0000
0000
0000
0000
0000
0000
0000
0000
0000
0000
0000
0000
0000
0000
0000
0000
0000
0000
0000
0000
0000
ENDCHAR
STARTCHAR c2447
ENCODING 9287
SWIDTH 500 0
DWIDTH 12 0
BBX 12 27 0 -5
BITMAP
0000
0000
0000
0000
0000
0000
0000
0000
0000
0000
0000
0000
0000
0000
0000
0000
0000
0000
0000
0000
0000
0000
0000
0000
0000
0000
0000
ENDCHAR
STARTCHAR c2448
ENCODING 9288
SWIDTH 500 0
DWIDTH 12 0
BBX 12 19 0 -5
BITMAP
fff0
7ff0
0180
0f80
3f80
7800
6000
6040
3fe0
1fc0
0300
3f80
7fc0
6360
3f60
1f60
0360
0320
0100
ENDCHAR
STARTCHAR c2449
ENCODING 9289
SWIDTH 500 0
DWIDTH 12 0
BBX 12 19 0 -5
BITMAP
fff0
7ff0
0180
0f80
3f80
7800
6000
6040
3fe0
1fc0
0180
0380
1f80
3e80
7000
6000
20e0
1fe0
0f80
ENDCHAR
STARTCHAR c244a
ENCODING 9290
SWIDTH 500 0
DWIDTH 12 0
BBX 12 19 0 -5
BITMAP
fff0
7ff0
0180
0f80
3f80
7800
6000
6040
3fe0
1fc0
0180
0180
0f80
3fc0
7860
6030
2070
1fe0
0fc0
ENDCHAR
STARTCHAR c244b
ENCODING 9291
SWIDTH 500 0
DWIDTH 12 0
BBX 12 27 0 -5
BITMAP
0000
0000
0000
0000
0000
0000
0000
0000
0000
0000
0000
0000
0000
0000
0000
0000
0000
0000
0000
0000
0000
0000
0000
0000
0000
0000
0000
ENDCHAR
STARTCHAR c244c
ENCODING 9292
SWIDTH 500 0
DWIDTH 12 0
BBX 12 27 0 -5
BITMAP
0000
0000
0000
0000
0000
0000
0000
0000
0000
0000
0000
0000
0000
0000
0000
0000
0000
0000
0000
0000
0000
0000
0000
0000
0000
0000
0000
ENDCHAR
STARTCHAR c244d
ENCODING 9293
SWIDTH 500 0
DWIDTH 12 0
BBX 12 27 0 -5
BITMAP
0000
0000
0000
0000
0000
0000
0000
0000
0000
0000
0000
0000
0000
0000
0000
0000
0000
0000
0000
0000
0000
0000
0000
0000
0000
0000
0000
ENDCHAR
STARTCHAR c244e
ENCODING 9294
SWIDTH 500 0
DWIDTH 12 0
BBX 12 19 0 -5
BITMAP
fff0
7ff0
00c0
0fc0
1fc0
1800
0f80
47c0
6060
20e0
1fc0
3fc0
30c0
18c0
3cc0
33c0
1fc0
0fc0
1cc0
ENDCHAR
STARTCHAR c244f
ENCODING 9295
SWIDTH 500 0
DWIDTH 12 0
BBX 12 27 0 -5
BITMAP
0000
0000
0000
0000
0000
0000
0000
0000
0000
0000
0000
0000
0000
0000
0000
0000
0000
0000
0000
0000
0000
0000
0000
0000
0000
0000
0000
ENDCHAR
STARTCHAR c2450
ENCODING 9296
SWIDTH 500 0
DWIDTH 12 0
BBX 12 19 0 -5
BITMAP
ffe0
7ff0
00c0
0fc0
1fc0
1800
0f80
47c0
6060
20e0
1fc0
0fc0
0cc0
0cc0
1cc0
1cc0
1cc0
0cc0
00c0
ENDCHAR
STARTCHAR c2451
ENCODING 9297
SWIDTH 500 0
DWIDTH 12 0
BBX 12 18 0 -4
BITMAP
fff0
7ff0
00c0
0fc0
1fc0
1800
0f80
47c0
6060
20e0
1fc0
3fc0
30c0
18c0
3cc0
31c0
1fc0
0fc0
ENDCHAR
STARTCHAR c2452
ENCODING 9298
SWIDTH 500 0
DWIDTH 12 0
BBX 12 19 0 -5
BITMAP
fff0
7ff0
0180
0f80
1f80
1800
0e00
4380
60c0
21c0
1f80
1f80
1f80
1800
0e00
4380
60c0
3fc0
3fc0
ENDCHAR
STARTCHAR c2453
ENCODING 9299
SWIDTH 500 0
DWIDTH 12 0
BBX 12 27 0 -5
BITMAP
0000
0000
0000
0000
0000
0000
0000
0000
0000
0000
0000
0000
0000
0000
0000
0000
0000
0000
0000
0000
0000
0000
0000
0000
0000
0000
0000
ENDCHAR
STARTCHAR c2454
ENCODING 9300
SWIDTH 500 0
DWIDTH 12 0
BBX 12 27 0 -5
BITMAP
0000
0000
0000
0000
0000
0000
0000
0000
0000
0000
0000
0000
0000
0000
0000
0000
0000
0000
0000
0000
0000
0000
0000
0000
0000
0000
0000
ENDCHAR
STARTCHAR c2455
ENCODING 9301
SWIDTH 500 0
DWIDTH 12 0
BBX 12 27 0 -5
BITMAP
0000
0000
0000
0000
0000
0000
0000
0000
0000
0000
0000
0000
0000
0000
0000
0000
0000
0000
0000
0000
0000
0000
0000
0000
0000
0000
0000
ENDCHAR
STARTCHAR c2456
ENCODING 9302
SWIDTH 500 0
DWIDTH 12 0
BBX 12 27 0 -5
BITMAP
0000
0000
0000
0000
0000
0000
0000
0000
0000
0000
0000
0000
0000
0000
0000
0000
0000
0000
0000
0000
0000
0000
0000
0000
0000
0000
0000
ENDCHAR
STARTCHAR c2457
ENCODING 9303
SWIDTH 500 0
DWIDTH 12 0
BBX 12 27 0 -5
BITMAP
0000
0000
0000
0000
0000
0000
0000
0000
0000
0000
0000
0000
0000
0000
0000
0000
0000
0000
0000
0000
0000
0000
0000
0000
0000
0000
0000
ENDCHAR
STARTCHAR c2458
ENCODING 9304
SWIDTH 500 0
DWIDTH 12 0
BBX 12 27 0 -5
BITMAP
0000
0000
0000
0000
0000
0000
0000
0000
0000
0000
0000
0000
0000
0000
0000
0000
0000
0000
0000
0000
0000
0000
0000
0000
0000
0000
0000
ENDCHAR
STARTCHAR c2459
ENCODING 9305
SWIDTH 500 0
DWIDTH 12 0
BBX 12 27 0 -5
BITMAP
0000
0000
0000
0000
0000
0000
0000
0000
0000
0000
0000
0000
0000
0000
0000
0000
0000
0000
0000
0000
0000
0000
0000
0000
0000
0000
0000
ENDCHAR
STARTCHAR c245a
ENCODING 9306
SWIDTH 500 0
DWIDTH 12 0
BBX 12 27 0 -5
BITMAP
0000
0000
0000
0000
0000
0000
0000
0000
0000
0000
0000
0000
0000
0000
0000
0000
0000
0000
0000
0000
0000
0000
0000
0000
0000
0000
0000
ENDCHAR
STARTCHAR c245b
ENCODING 9307
SWIDTH 500 0
DWIDTH 12 0
BBX 12 27 0 -5
BITMAP
0000
0000
0000
0000
0000
0000
0000
0000
0000
0000
0000
0000
0000
0000
0000
0000
0000
0000
0000
0000
0000
0000
0000
0000
0000
0000
0000
ENDCHAR
STARTCHAR c245c
ENCODING 9308
SWIDTH 500 0
DWIDTH 12 0
BBX 12 27 0 -5
BITMAP
0000
0000
0000
0000
0000
0000
0000
0000
0000
0000
0000
0000
0000
0000
0000
0000
0000
0000
0000
0000
0000
0000
0000
0000
0000
0000
0000
ENDCHAR
STARTCHAR c245d
ENCODING 9309
SWIDTH 500 0
DWIDTH 12 0
BBX 12 27 0 -5
BITMAP
0000
0000
0000
0000
0000
0000
0000
0000
0000
0000
0000
0000
0000
0000
0000
0000
0000
0000
0000
0000
0000
0000
0000
0000
0000
0000
0000
ENDCHAR
STARTCHAR c245e
ENCODING 9310
SWIDTH 500 0
DWIDTH 12 0
BBX 12 27 0 -5
BITMAP
0000
0000
0000
0000
0000
0000
0000
0000
0000
0000
0000
0000
0000
0000
0000
0000
0000
0000
0000
0000
0000
0000
0000
0000
0000
0000
0000
ENDCHAR
STARTCHAR c245f
ENCODING 9311
SWIDTH 500 0
DWIDTH 12 0
BBX 12 27 0 -5
BITMAP
0000
0000
0000
0000
0000
0000
0000
0000
0000
0000
0000
0000
0000
0000
0000
0000
0000
0000
0000
0000
0000
0000
0000
0000
0000
0000
0000
ENDCHAR
STARTCHAR c2460
ENCODING 9312
SWIDTH 500 0
DWIDTH 12 0
BBX 12 27 0 -5
BITMAP
0000
0000
0000
0000
0000
0000
0000
0000
0000
0000
0000
0000
0000
0000
0000
0000
0000
0000
0000
0000
0000
0000
0000
0000
0000
0000
0000
ENDCHAR
STARTCHAR c2461
ENCODING 9313
SWIDTH 500 0
DWIDTH 12 0
BBX 12 27 0 -5
BITMAP
0000
0000
0000
0000
0000
0000
0000
0000
0000
0000
0000
0000
0000
0000
0000
0000
0000
0000
0000
0000
0000
0000
0000
0000
0000
0000
0000
ENDCHAR
STARTCHAR c2462
ENCODING 9314
SWIDTH 500 0
DWIDTH 12 0
BBX 12 27 0 -5
BITMAP
0000
0000
0000
0000
0000
0000
0000
0000
0000
0000
0000
0000
0000
0000
0000
0000
0000
0000
0000
0000
0000
0000
0000
0000
0000
0000
0000
ENDCHAR
STARTCHAR c2463
ENCODING 9315
SWIDTH 500 0
DWIDTH 12 0
BBX 12 27 0 -5
BITMAP
0000
0000
0000
0000
0000
0000
0000
0000
0000
0000
0000
0000
0000
0000
0000
0000
0000
0000
0000
0000
0000
0000
0000
0000
0000
0000
0000
ENDCHAR
STARTCHAR c2464
ENCODING 9316
SWIDTH 500 0
DWIDTH 12 0
BBX 12 27 0 -5
BITMAP
0000
0000
0000
0000
0000
0000
0000
0000
0000
0000
0000
0000
0000
0000
0000
0000
0000
0000
0000
0000
0000
0000
0000
0000
0000
0000
0000
ENDCHAR
STARTCHAR c2465
ENCODING 9317
SWIDTH 500 0
DWIDTH 12 0
BBX 12 27 0 -5
BITMAP
0000
0000
0000
0000
0000
0000
0000
0000
0000
0000
0000
0000
0000
0000
0000
0000
0000
0000
0000
0000
0000
0000
0000
0000
0000
0000
0000
ENDCHAR
STARTCHAR c2466
ENCODING 9318
SWIDTH 500 0
DWIDTH 12 0
BBX 12 27 0 -5
BITMAP
0000
0000
0000
0000
0000
0000
0000
0000
0000
0000
0000
0000
0000
0000
0000
0000
0000
0000
0000
0000
0000
0000
0000
0000
0000
0000
0000
ENDCHAR
STARTCHAR c2467
ENCODING 9319
SWIDTH 500 0
DWIDTH 12 0
BBX 12 27 0 -5
BITMAP
0000
0000
0000
0000
0000
0000
0000
0000
0000
0000
0000
0000
0000
0000
0000
0000
0000
0000
0000
0000
0000
0000
0000
0000
0000
0000
0000
ENDCHAR
STARTCHAR c2468
ENCODING 9320
SWIDTH 500 0
DWIDTH 12 0
BBX 12 19 0 -5
BITMAP
fff0
7ff0
00c0
1fc0
3fc0
7000
6000
6180
23c0
3fc0
3fc0
3180
3180
7180
7380
2780
0f80
1d80
1880
ENDCHAR
STARTCHAR c2469
ENCODING 9321
SWIDTH 500 0
DWIDTH 12 0
BBX 12 19 0 -5
BITMAP
ffe0
7ff0
00c0
1fc0
3fc0
3000
3800
7f80
63c0
60c0
38c0
7cc0
60c0
63c0
3fc0
1fc0
0ec0
1c40
1800
ENDCHAR
STARTCHAR c246a
ENCODING 9322
SWIDTH 500 0
DWIDTH 12 0
BBX 12 18 0 -4
BITMAP
ffe0
7ff0
0180
3f80
7f80
6000
6000
2f00
3f80
7800
6000
2180
3fc0
7f80
60c0
21c0
1fa0
0f00
ENDCHAR
STARTCHAR c246b
ENCODING 9323
SWIDTH 500 0
DWIDTH 12 0
BBX 12 27 0 -5
BITMAP
0000
0000
0000
0000
0000
0000
0000
0000
0000
0000
0000
0000
0000
0000
0000
0000
0000
0000
0000
0000
0000
0000
0000
0000
0000
0000
0000
ENDCHAR
STARTCHAR c246c
ENCODING 9324
SWIDTH 500 0
DWIDTH 12 0
BBX 12 19 0 -5
BITMAP
ffe0
7ff0
00c0
1fc0
3fc0
7000
6000
6180
23c0
3fc0
3fc0
3180
3180
7180
7180
2180
0180
0180
0080
ENDCHAR
STARTCHAR c246d
ENCODING 9325
SWIDTH 500 0
DWIDTH 12 0
BBX 12 18 0 -4
BITMAP
ffe0
7ff0
00c0
1fc0
3fc0
3000
3800
7f80
63c0
60c0
38c0
7cc0
60c0
63c0
3fc0
1ec0
00c0
0040
ENDCHAR
STARTCHAR c246e
ENCODING 9326
SWIDTH 500 0
DWIDTH 12 0
BBX 12 17 0 -3
BITMAP
ffe0
7ff0
0180
3f80
7f80
6000
6000
2f00
3f80
7800
6000
2180
1fc0
0f80
00c0
0040
0020
ENDCHAR
STARTCHAR c246f
ENCODING 9327
SWIDTH 500 0
DWIDTH 12 0
BBX 12 27 0 -5
BITMAP
0000
0000
0000
0000
0000
0000
0000
0000
0000
0000
0000
0000
0000
0000
0000
0000
0000
0000
0000
0000
0000
0000
0000
0000
0000
0000
0000
ENDCHAR
STARTCHAR c2470
ENCODING 9328
SWIDTH 500 0
DWIDTH 12 0
BBX 12 16 0 -2
BITMAP
ffe0
7ff0
00c0
1fc0
3fc0
3000
3000
1080
0fc0
07c0
00c0
1fc0
3fc0
1cc0
08c0
0040
ENDCHAR
STARTCHAR c2471
ENCODING 9329
SWIDTH 500 0
DWIDTH 12 0
BBX 12 17 0 -3
BITMAP
fff0
7ff0
0180
3f80
7f80
6000
6000
6300
2780
1f80
3f80
7d80
6dc0
3fc0
1f60
0030
0010
ENDCHAR
STARTCHAR c2472
ENCODING 9330
SWIDTH 500 0
DWIDTH 12 0
BBX 12 14 0 0
BITMAP
fff0
fff0
0060
0fe0
1fe0
1800
0800
c7c0
63e0
1060
7fe0
7fe0
7860
3820
ENDCHAR
STARTCHAR c2473
ENCODING 9331
SWIDTH 500 0
DWIDTH 12 0
BBX 12 27 0 -5
BITMAP
0000
0000
0000
0000
0000
0000
0000
0000
0000
0000
0000
0000
0000
0000
0000
0000
0000
0000
0000
0000
0000
0000
0000
0000
0000
0000
0000
ENDCHAR
STARTCHAR c2474
ENCODING 9332
SWIDTH 500 0
DWIDTH 12 0
BBX 12 27 0 -5
BITMAP
0000
0000
0000
0000
0000
0000
0000
0000
0000
0000
0000
0000
0000
0000
0000
0000
0000
0000
0000
0000
0000
0000
0000
0000
0000
0000
0000
ENDCHAR
STARTCHAR c2475
ENCODING 9333
SWIDTH 500 0
DWIDTH 12 0
BBX 12 17 0 -3
BITMAP
fff0
7ff0
0180
3f80
7f80
6000
6000
6300
2780
1f80
3f80
7180
61c0
3fc0
1f60
0030
0010
ENDCHAR
STARTCHAR c2476
ENCODING 9334
SWIDTH 500 0
DWIDTH 12 0
BBX 12 15 0 -1
BITMAP
23e0
71f0
6060
2060
1e60
3f60
3060
31e0
1fe0
0f60
0060
1fe0
3fe0
1c20
0800
ENDCHAR
STARTCHAR c2477
ENCODING 9335
SWIDTH 500 0
DWIDTH 12 0
BBX 12 27 0 -5
BITMAP
0000
0000
0000
0000
0000
0000
0000
0000
0000
0000
0000
0000
0000
0000
0000
0000
0000
0000
0000
0000
0000
0000
0000
0000
0000
0000
0000
ENDCHAR
STARTCHAR c2478
ENCODING 9336
SWIDTH 500 0
DWIDTH 12 0
BBX 12 14 0 0
BITMAP
ffe0
7ff0
60c0
60c0
20c0
18c0
0fc0
3fc0
78c0
60c0
20c0
30c0
18c0
0c40
ENDCHAR
STARTCHAR c2479
ENCODING 9337
SWIDTH 500 0
DWIDTH 12 0
BBX 12 14 0 0
BITMAP
ffe0
7ff0
30c0
30c0
30c0
18c0
0fc0
03c0
00c0
00c0
3fc0
7fc0
38c0
1040
ENDCHAR
STARTCHAR c247a
ENCODING 9338
SWIDTH 500 0
DWIDTH 12 0
BBX 12 27 0 -5
BITMAP
0000
0000
0000
0000
0000
0000
0000
0000
0000
0000
0000
0000
0000
0000
0000
0000
0000
0000
0000
0000
0000
0000
0000
0000
0000
0000
0000
ENDCHAR
STARTCHAR c247b
ENCODING 9339
SWIDTH 500 0
DWIDTH 12 0
BBX 12 27 0 -5
BITMAP
0000
0000
0000
0000
0000
0000
0000
0000
0000
0000
0000
0000
0000
0000
0000
0000
0000
0000
0000
0000
0000
0000
0000
0000
0000
0000
0000
ENDCHAR
STARTCHAR c247c
ENCODING 9340
SWIDTH 500 0
DWIDTH 12 0
BBX 12 27 0 -5
BITMAP
0000
0000
0000
0000
0000
0000
0000
0000
0000
0000
0000
0000
0000
0000
0000
0000
0000
0000
0000
0000
0000
0000
0000
0000
0000
0000
0000
ENDCHAR
STARTCHAR c247d
ENCODING 9341
SWIDTH 500 0
DWIDTH 12 0
BBX 12 27 0 -5
BITMAP
0000
0000
0000
0000
0000
0000
0000
0000
0000
0000
0000
0000
0000
0000
0000
0000
0000
0000
0000
0000
0000
0000
0000
0000
0000
0000
0000
ENDCHAR
STARTCHAR c247e
ENCODING 9342
SWIDTH 500 0
DWIDTH 12 0
BBX 12 27 0 -5
BITMAP
0000
0000
0000
0000
0000
0000
0000
0000
0000
0000
0000
0000
0000
0000
0000
0000
0000
0000
0000
0000
0000
0000
0000
0000
0000
0000
0000
ENDCHAR
ENDFONT
